<?xml version="1.0" standalone="no"?>
<!DOCTYPE svg PUBLIC "-//W3C//DTD SVG 1.1//EN" "http://www.w3.org/Graphics/SVG/1.1/DTD/svg11.dtd" >
<svg>
<metadata>
Created by FontForge 20090622 at Wed Oct 31 08:56:48 2018
 By deploy user
&#194;&#169; 1987, 1991, 1993, 2002 Adobe Systems Incorporated. All rights reserved.
</metadata>
<defs>
<font id="ElleFutura-Heavy" horiz-adv-x="578" >
  <font-face 
    font-family="Elle Futura"
    font-weight="650"
    font-stretch="normal"
    units-per-em="1000"
    panose-1="2 11 7 2 2 2 4 2 2 3"
    ascent="800"
    descent="-200"
    x-height="491"
    cap-height="754"
    bbox="-148 -264 1178 1161"
    underline-thickness="50"
    underline-position="-50"
    unicode-range="U+0013-U+FB02"
  />
<missing-glyph horiz-adv-x="500" 
d="M0 0v700h500v-700h-500zM250 395l170 255h-340zM280 350l170 -255v510zM80 50h340l-170 255zM50 605v-510l170 255z" />
    <glyph glyph-name="f_i" unicode="fi" horiz-adv-x="544" 
d="M195 373v-373h-140v373h-47v118h47v144q0 99 45 162t140 63q36 0 67 -16v-125q-34 17 -57 17q-10 0 -18 -2.5t-14 -8.5t-10 -11.5t-6.5 -15t-4 -16t-2 -18.5t-0.5 -17.5v-17v-14.5v-124h112v-118h-112zM487 491v-491h-140v491h140zM417 780q34 0 58.5 -24.5t24.5 -58.5
q0 -35 -24 -59t-59 -24t-59 24t-24 59q0 34 24.5 58.5t58.5 24.5z" />
    <glyph glyph-name="f_l" unicode="fl" horiz-adv-x="543" 
d="M493 848v-848h-140v848h140zM195 373v-373h-140v373h-47v118h47v144q0 99 45 162t140 63q36 0 67 -16v-125q-34 17 -57 17q-10 0 -18 -2.5t-14 -8.5t-10 -11.5t-6.5 -15t-4 -16t-2 -18.5t-0.5 -17.5v-17v-14.5v-124h112v-118h-112z" />
    <glyph glyph-name=".notdef" horiz-adv-x="500" 
d="M0 0v700h500v-700h-500zM250 395l170 255h-340zM280 350l170 -255v510zM80 50h340l-170 255zM50 605v-510l170 255z" />
    <glyph glyph-name=".null" horiz-adv-x="0" 
 />
    <glyph glyph-name="nonmarkingreturn" horiz-adv-x="333" 
 />
    <glyph glyph-name="uni0013" horiz-adv-x="0" 
 />
    <glyph glyph-name="space" unicode=" " horiz-adv-x="289" 
 />
    <glyph glyph-name="exclam" unicode="!" horiz-adv-x="325" 
d="M162 158q37 0 63 -25.5t26 -62.5t-26 -63.5t-63 -26.5t-63 26.5t-26 63.5t26 62.5t63 25.5zM91 217v537h142v-537h-142z" />
    <glyph glyph-name="quotedbl" unicode="&#x22;" horiz-adv-x="488" 
d="M88 754h120l-18 -328h-84zM280 754h120l-18 -328h-84z" />
    <glyph glyph-name="numbersign" unicode="#" 
d="M211 726h106l-39 -203h101l39 203h105l-39 -203h80v-113h-98l-24 -124h94v-113h-118l-33 -173h-106l33 173h-101l-33 -173h-106l33 173h-91v113h113l24 124h-96v113h117zM257 410l-24 -124h102l26 124h-104z" />
    <glyph glyph-name="dollar" unicode="$" 
d="M268 -100v95q-78 9 -127 43.5t-87 104.5l89 86q54 -107 140 -107q43 0 70 29t27 72q0 17 -6.5 32t-13.5 24t-25.5 21t-27 16.5t-35.5 17t-34 15.5q-43 21 -70 40t-49.5 59t-22.5 94q0 84 45.5 141t126.5 72v93h73v-94q99 -12 159 -86l-67 -95q-47 61 -111 61
q-34 0 -59.5 -22.5t-25.5 -56.5q0 -18 6.5 -31.5t24.5 -26.5t29.5 -19.5t42 -20.5t40.5 -19q43 -21 70.5 -42t50 -63t22.5 -98q0 -88 -49 -153t-133 -82v-100h-73z" />
    <glyph glyph-name="percent" unicode="%" horiz-adv-x="772" 
d="M184 774q77 0 128 -50.5t51 -128.5q0 -77 -51 -127.5t-128 -50.5t-128 50.5t-51 127.5q0 78 51 128.5t128 50.5zM184 693q-35 0 -57.5 -30.5t-22.5 -67.5t22 -67t58 -30t58 30t22 67t-22.5 67.5t-57.5 30.5zM587 337q77 0 128 -50.5t51 -128.5q0 -77 -51 -127.5
t-128 -50.5t-128 50.5t-51 127.5q0 78 51 128.5t128 50.5zM587 256q-35 0 -57.5 -30.5t-22.5 -67.5t22 -67t58 -30t58 30t22 67t-22.5 67.5t-57.5 30.5zM553 780l68 -34l-404 -777l-69 35z" />
    <glyph glyph-name="ampersand" unicode="&#x26;" horiz-adv-x="702" 
d="M383 177l-117 157q-26 -19 -41 -33t-29.5 -38t-14.5 -50q0 -37 27 -69t63 -32q21 0 43.5 11.5t34.5 22t34 31.5zM283 543l36 -51l25 21q42 36 42 82q0 29 -16 51.5t-43 22.5q-29 0 -45.5 -20.5t-16.5 -49.5q0 -31 18 -56zM531 0l-61 76q-110 -96 -216 -96
q-95 0 -158 62.5t-63 157.5q0 122 109 196l45 31q-61 85 -61 160q0 83 55 135t137 52q83 0 138 -51.5t55 -134.5q0 -101 -124 -182l105 -135l76 97l93 -87l-81 -109l130 -172h-179z" />
    <glyph glyph-name="quotesingle" unicode="'" horiz-adv-x="296" 
d="M88 754h120l-18 -328h-84z" />
    <glyph glyph-name="parenleft" unicode="(" horiz-adv-x="271" 
d="M175 832l86 -58q-82 -186 -82 -450q0 -270 82 -449l-86 -59q-101 199 -101 514q0 131 25 264.5t76 237.5z" />
    <glyph glyph-name="parenright" unicode=")" horiz-adv-x="271" 
d="M10 774l86 58q51 -104 76 -237.5t25 -264.5q0 -315 -101 -514l-86 59q82 179 82 449q0 264 -82 450z" />
    <glyph glyph-name="asterisk" unicode="*" horiz-adv-x="417" 
d="M166 754h86l-2 -101l77 52l36 -67l-81 -50l81 -50l-36 -67l-77 52l2 -99h-86l3 99l-78 -52l-36 67l79 50l-80 50l35 67l80 -52z" />
    <glyph glyph-name="plus" unicode="+" 
d="M230 512h118v-197h197v-118h-197v-197h-118v197h-197v118h197v197z" />
    <glyph glyph-name="comma" unicode="," horiz-adv-x="289" 
d="M135 156l128 -14l-144 -301l-93 11z" />
    <glyph glyph-name="hyphen" unicode="-" horiz-adv-x="330" 
d="M43 378h244v-115h-244v115z" />
    <glyph glyph-name="period" unicode="." horiz-adv-x="289" 
d="M145 158q37 0 63 -25.5t26 -62.5t-26 -63.5t-63 -26.5t-63 26.5t-26 63.5t26 62.5t63 25.5z" />
    <glyph glyph-name="slash" unicode="/" horiz-adv-x="539" 
d="M405 848l97 -35l-368 -975l-97 35z" />
    <glyph glyph-name="zero" unicode="0" 
d="M289 774q58 0 105.5 -26t77.5 -67t50 -95t28.5 -106.5t8.5 -103.5t-8.5 -103t-29 -105.5t-50.5 -94.5t-77.5 -67t-104.5 -26t-104.5 26t-77.5 67t-50.5 94.5t-29 105.5t-8.5 103t8.5 103.5t28.5 106.5t50 95t77.5 67t105.5 26zM289 646q-36 0 -63 -30t-39.5 -76.5
t-18 -86.5t-5.5 -75q0 -34 5.5 -74.5t18 -87.5t39.5 -77.5t63 -30.5q37 0 63.5 30.5t39 77.5t18 87t5.5 75t-5.5 75t-18 86.5t-39 76.5t-63.5 30z" />
    <glyph glyph-name="one" unicode="1" 
d="M244 626h-99v128h246v-754h-147v626z" />
    <glyph glyph-name="two" unicode="2" 
d="M289 128h247v-128h-508l192 242q1 1 17 21t20.5 26l20.5 26.5l23 30t20.5 29.5t20.5 32.5l16.5 30.5t14 31t8 28t3.5 27q0 45 -27 83.5t-70 38.5q-46 0 -71 -40.5t-22 -88.5h-156q8 114 72 185.5t176 71.5q104 0 174.5 -70t70.5 -173q0 -75 -34 -138t-97 -136z" />
    <glyph glyph-name="three" unicode="3" 
d="M199 557h-140q10 99 70.5 158t160.5 59q98 0 157.5 -58t59.5 -155q0 -47 -18 -90t-54 -67q48 -21 72.5 -73.5t24.5 -110.5q0 -109 -70.5 -174.5t-180.5 -65.5q-103 0 -173.5 68t-76.5 170h148q2 -47 31.5 -78.5t76.5 -31.5t74 36.5t27 84.5q0 49 -29.5 86.5t-76.5 33.5
l-27 -2v105h16q46 0 71 28t25 76q0 40 -23 68t-63 28q-37 0 -58.5 -28.5t-23.5 -66.5z" />
    <glyph glyph-name="four" unicode="4" 
d="M473 251h80v-118h-80v-133h-138v133h-332v66l336 569h134v-517zM335 251v300h-2l-159 -300h161z" />
    <glyph glyph-name="five" unicode="5" 
d="M499 626h-224l-26 -115l38 2q107 0 175 -76.5t68 -185.5q0 -121 -76.5 -196t-197.5 -75q-136 0 -224 100l44 126q31 -44 75.5 -71t94.5 -27q60 0 97.5 44t37.5 105q0 62 -42.5 106t-104.5 44q-69 0 -121 -49h-23l81 396h328v-128z" />
    <glyph glyph-name="six" unicode="6" 
d="M313 785l108 -78l-155 -219l2 -2q24 10 59 10q100 0 162 -74t62 -176q0 -116 -75 -191t-191 -75q-113 0 -188.5 72t-75.5 184q0 115 92 252zM284 100q53 0 86 43t33 97q0 55 -33 98t-86 43t-86.5 -43.5t-33.5 -97.5t33.5 -97t86.5 -43z" />
    <glyph glyph-name="seven" unicode="7" 
d="M359 626h-316v128h539l-413 -774l-121 69z" />
    <glyph glyph-name="eight" unicode="8" 
d="M289 333q-43 0 -69.5 -35.5t-26.5 -80.5t26.5 -80t69.5 -35t69.5 35t26.5 80t-26.5 80.5t-69.5 35.5zM167 393q-46 23 -72.5 68.5t-26.5 97.5q0 95 63 155t158 60t158 -60t63 -155q0 -52 -26.5 -97.5t-72.5 -68.5q60 -23 91 -74t31 -118q0 -98 -72.5 -159.5t-171.5 -61.5
t-171.5 61.5t-72.5 159.5q0 67 31 118t91 74zM289 664q-39 0 -63 -32.5t-24 -72.5q0 -41 24 -73.5t63 -32.5t63 32.5t24 73.5q0 40 -24 72.5t-63 32.5z" />
    <glyph glyph-name="nine" unicode="9" 
d="M264 -32l-108 79l155 219l-2 2q-27 -11 -59 -11q-100 0 -162 74t-62 176q0 117 75 192t191 75q113 0 188.5 -72t75.5 -185q0 -115 -92 -252zM293 654q-53 0 -86 -43t-33 -98t33 -98t86 -43t86.5 43.5t33.5 97.5t-33.5 97.5t-86.5 43.5z" />
    <glyph glyph-name="colon" unicode=":" horiz-adv-x="289" 
d="M145 158q37 0 63 -25.5t26 -62.5t-26 -63.5t-63 -26.5t-63 26.5t-26 63.5t26 62.5t63 25.5zM145 518q37 0 63 -25.5t26 -62.5t-26 -63.5t-63 -26.5t-63 26.5t-26 63.5t26 62.5t63 25.5z" />
    <glyph glyph-name="semicolon" unicode=";" horiz-adv-x="289" 
d="M125 156l128 -14l-144 -301l-93 11zM185 518q37 0 63 -25.5t26 -62.5t-26 -63.5t-63 -26.5t-63 26.5t-26 63.5t26 62.5t63 25.5z" />
    <glyph glyph-name="less" unicode="&#x3c;" 
d="M33 196v120l512 182v-126l-325 -115v-2l325 -115v-126z" />
    <glyph glyph-name="equal" unicode="=" 
d="M33 315v118h512v-118h-512zM33 79v118h512v-118h-512z" />
    <glyph glyph-name="greater" unicode="&#x3e;" 
d="M545 316v-120l-512 -182v126l325 115v2l-325 115v126z" />
    <glyph glyph-name="question" unicode="?" horiz-adv-x="487" 
d="M148 257v199q16 -4 36 -4q53 0 90.5 30t37.5 82q0 34 -18.5 61t-50.5 27t-49.5 -24.5t-17.5 -57.5v-12h-146q-4 90 58.5 153t153.5 63q92 0 153.5 -61.5t61.5 -153.5q0 -74 -44.5 -132t-116.5 -74l-8 -96h-140zM220 158q37 0 63 -25.5t26 -62.5t-26 -63.5t-63 -26.5
t-63 26.5t-26 63.5t26 62.5t63 25.5z" />
    <glyph glyph-name="at" unicode="@" horiz-adv-x="975" 
d="M590 372q7 60 -20.5 90.5t-81.5 30.5q-58 0 -91 -43.5t-33 -103.5q0 -47 23.5 -77.5t68.5 -30.5q117 0 134 134zM615 507l14 63h71l-50 -260q-9 -26 -8.5 -56t22.5 -30q36 0 69 60t33 134q0 125 -73.5 197.5t-190.5 72.5q-125 0 -209 -89.5t-84 -221.5
q0 -136 92.5 -223.5t223.5 -87.5q121 0 180 43l75 -60q-63 -35 -121 -52t-148 -17q-163 0 -275.5 113.5t-112.5 283.5q0 169 110.5 283t271.5 114q140 0 235 -88q112 -97 112 -232q0 -133 -62 -214q-69 -92 -154 -88q-44 2 -54 62q-62 -62 -136 -62q-67 0 -117.5 55
t-50.5 132q0 96 57 168t147 72q79 0 133 -72z" />
    <glyph glyph-name="A" unicode="A" horiz-adv-x="676" 
d="M470 159h-262l-62 -159h-155l294 774h114l286 -774h-157zM429 279l-94 274h-2l-83 -274h179z" />
    <glyph glyph-name="B" unicode="B" horiz-adv-x="553" 
d="M201 328v-210h31q34 0 57 3.5t45.5 13.5t33.5 33t11 58q0 28 -9.5 48t-22.5 30.5t-36 16t-40.5 6.5t-45.5 1h-24zM54 0v754h183q110 0 168 -48.5t58 -156.5q0 -44 -16.5 -84.5t-49.5 -61.5q63 -11 96 -66t33 -123q0 -106 -66.5 -160t-174.5 -54h-231zM201 636v-196h18
q57 0 82 21.5t25 77.5q0 54 -27.5 75.5t-78.5 21.5h-19z" />
    <glyph glyph-name="C" unicode="C" horiz-adv-x="601" 
d="M558 730v-176q-66 80 -166 80q-101 0 -161.5 -78t-60.5 -182q0 -101 61.5 -177.5t159.5 -76.5q46 0 90.5 22t76.5 58v-175q-95 -45 -171 -45q-156 0 -262.5 116t-106.5 275q0 107 46 199t132.5 148t193.5 56q88 0 168 -44z" />
    <glyph glyph-name="D" unicode="D" horiz-adv-x="646" 
d="M54 0v754h210q162 0 263 -107.5t101 -270.5q0 -161 -102.5 -268.5t-262.5 -107.5h-209zM201 626v-498h24q251 0 251 249t-251 249h-24z" />
    <glyph glyph-name="E" unicode="E" horiz-adv-x="488" 
d="M444 626h-243v-166h234v-128h-234v-204h243v-128h-390v754h390v-128z" />
    <glyph glyph-name="F" unicode="F" horiz-adv-x="463" 
d="M428 626h-227v-166h213v-128h-213v-332h-147v754h374v-128z" />
    <glyph glyph-name="G" unicode="G" horiz-adv-x="739" 
d="M395 401h325v-19q0 -82 -21 -153t-62 -127.5t-108 -89t-152 -32.5q-106 0 -189.5 55.5t-126.5 144.5t-43 194q0 167 102 283.5t266 116.5q97 0 176 -47t122 -133l-130 -70q-23 53 -69 86.5t-103 33.5q-99 0 -155.5 -83t-56.5 -187q0 -65 23 -124t73 -99.5t117 -40.5
q68 0 119 51t53 120h-160v120z" />
    <glyph glyph-name="H" unicode="H" horiz-adv-x="674" 
d="M201 457h272v297h147v-754h-147v337h-272v-337h-147v754h147v-297z" />
    <glyph glyph-name="I" unicode="I" horiz-adv-x="254" 
d="M201 754v-754h-147v754h147z" />
    <glyph glyph-name="J" unicode="J" horiz-adv-x="389" 
d="M339 754v-498q0 -43 -2 -68.5t-12 -59.5t-30 -63q-58 -85 -169 -85q-39 0 -79 20t-69 51l94 108q6 -18 23 -33.5t34 -15.5q12 0 21.5 4t15.5 12t11 17t8 22.5t4.5 23.5t2 26t0.5 24.5v23v18.5v473h147z" />
    <glyph glyph-name="K" unicode="K" horiz-adv-x="620" 
d="M203 436l233 318h181l-286 -348l302 -406h-189l-241 339h-2v-339h-147v754h147v-318h2z" />
    <glyph glyph-name="L" unicode="L" horiz-adv-x="402" 
d="M201 754v-626h208v-128h-355v754h147z" />
    <glyph glyph-name="M" unicode="M" horiz-adv-x="836" 
d="M677 0l-60 468h-2l-171 -478h-51l-165 478h-2l-67 -468h-148l127 774h104l186 -497l178 497h106l113 -774h-148z" />
    <glyph glyph-name="N" unicode="N" horiz-adv-x="759" 
d="M54 0v774h106l397 -527h2v507h147v-769h-106l-397 527h-2v-512h-147z" />
    <glyph glyph-name="O" unicode="O" horiz-adv-x="782" 
d="M764 378q0 -171 -102 -284.5t-271 -113.5t-271 113.5t-102 284.5t103.5 283.5t269.5 112.5t269.5 -112.5t103.5 -283.5zM612 384q0 97 -61 171t-160 74t-160 -74t-61 -171q0 -46 12 -90t37 -83t69.5 -62.5t102.5 -23.5t102.5 23.5t69.5 62.5t37 83t12 90z" />
    <glyph glyph-name="P" unicode="P" horiz-adv-x="528" 
d="M201 282v-282h-147v754h200q261 0 261 -234q0 -119 -62 -178.5t-179 -59.5h-73zM201 632v-228h30q71 0 102.5 24t31.5 93q0 67 -34 89t-104 22h-26z" />
    <glyph glyph-name="Q" unicode="Q" horiz-adv-x="782" 
d="M778 -17l-148 -15l-52 63q-76 -51 -187 -51q-162 0 -267.5 116.5t-105.5 281.5q0 162 106 279t267 117t267 -117t106 -279q0 -158 -89 -273zM498 302l67 -76q47 58 47 156q0 97 -63 174.5t-158 77.5q-102 0 -161.5 -80t-59.5 -185q0 -100 59 -173.5t162 -73.5q41 0 79 25
l-124 143z" />
    <glyph glyph-name="R" unicode="R" horiz-adv-x="558" 
d="M351 318l213 -318h-178l-183 304h-2v-304h-147v754h199q118 0 185 -55.5t67 -171.5q0 -76 -41 -136.5t-113 -72.5zM201 634v-227h19q67 0 102.5 25.5t35.5 90.5t-35.5 88t-101.5 23h-20z" />
    <glyph glyph-name="S" unicode="S" horiz-adv-x="526" 
d="M478 690l-69 -102q-46 62 -113 62q-36 0 -64 -24.5t-28 -60.5q0 -25 16.5 -44.5t43 -32t58.5 -25.5t63.5 -30.5t58 -41t43 -63t16.5 -90.5q0 -115 -67 -186.5t-181 -71.5q-144 0 -232 147l95 93q16 -46 53.5 -78t82.5 -32q44 0 70.5 32t26.5 77q0 64 -73 99q-12 6 -58 24
q-83 34 -125.5 79.5t-42.5 126.5q0 95 63 160.5t157 65.5q52 0 112.5 -23.5t93.5 -60.5z" />
    <glyph glyph-name="T" unicode="T" horiz-adv-x="451" 
d="M299 626v-626h-147v626h-152v128h451v-128h-152z" />
    <glyph glyph-name="U" unicode="U" horiz-adv-x="660" 
d="M50 303v451h147v-422q0 -34 1.5 -59.5t9.5 -59t21 -54.5t39 -36t62 -15t62 15t39 36t21 54.5t9.5 59t1.5 59.5v422h147v-451q0 -148 -68 -235.5t-212 -87.5t-212 87.5t-68 235.5z" />
    <glyph glyph-name="V" unicode="V" horiz-adv-x="639" 
d="M144 754l181 -508h2l168 508h158l-293 -774h-86l-288 774h158z" />
    <glyph glyph-name="W" unicode="W" horiz-adv-x="977" 
d="M140 754l152 -514h2l150 524h87l156 -524h2l148 514h154l-255 -769h-108l-150 493h-2l-142 -493h-108l-240 769h154z" />
    <glyph glyph-name="X" unicode="X" horiz-adv-x="623" 
d="M233 399l-203 355h174l120 -234l110 234h174l-209 -355l232 -399h-171l-152 276l-144 -276h-172z" />
    <glyph glyph-name="Y" unicode="Y" horiz-adv-x="587" 
d="M218 346l-234 408h171l132 -262l144 262h172l-238 -408v-346h-147v346z" />
    <glyph glyph-name="Z" unicode="Z" horiz-adv-x="575" 
d="M239 128h313v-128h-547l332 626h-281v128h514z" />
    <glyph glyph-name="bracketleft" unicode="[" horiz-adv-x="288" 
d="M151 754v-754h92v-91h-198v936h198v-91h-92z" />
    <glyph glyph-name="backslash" unicode="\" horiz-adv-x="539" 
d="M30 848h112l368 -848h-112z" />
    <glyph glyph-name="bracketright" unicode="]" horiz-adv-x="288" 
d="M137 0v754h-92v91h198v-936h-198v91h92z" />
    <glyph glyph-name="asciicircum" unicode="^" 
d="M33 329l193 425h124l195 -425h-129l-127 283l-127 -283h-129z" />
    <glyph glyph-name="underscore" unicode="_" horiz-adv-x="500" 
d="M500 -75v-50h-500v50h500z" />
    <glyph glyph-name="grave" unicode="`" horiz-adv-x="380" 
d="M79 712l102 62l120 -168l-71 -44z" />
    <glyph glyph-name="a" unicode="a" horiz-adv-x="565" 
d="M514 491v-491h-138v45h-2q-47 -61 -133 -61q-103 0 -164.5 79t-61.5 185q0 104 61.5 181.5t162.5 77.5q84 0 137 -62v46h138zM273 108q51 0 84 42.5t33 95.5t-33 95t-84 42t-83.5 -42t-32.5 -95t32.5 -95.5t83.5 -42.5z" />
    <glyph glyph-name="b" unicode="b" horiz-adv-x="565" 
d="M50 0v848h140v-402q51 61 136 61q100 0 162 -78.5t62 -180.5q0 -107 -61.5 -185.5t-165.5 -78.5q-39 0 -75 16.5t-56 45.5h-2v-46h-140zM292 108q51 0 83.5 42.5t32.5 95.5t-32.5 95t-83.5 42t-83.5 -42t-32.5 -95t32.5 -95.5t83.5 -42.5z" />
    <glyph glyph-name="c" unicode="c" horiz-adv-x="421" 
d="M384 476v-135q-48 48 -103 48q-56 0 -90 -44t-34 -102q0 -60 35.5 -100.5t93.5 -40.5q56 0 98 47v-135q-54 -30 -121 -30q-107 0 -177.5 76t-70.5 184q0 111 72.5 187t182.5 76q64 0 114 -31z" />
    <glyph glyph-name="d" unicode="d" horiz-adv-x="565" 
d="M375 0v46h-2q-21 -29 -57 -45.5t-75 -16.5q-103 0 -164.5 79t-61.5 185q0 104 61.5 181.5t162.5 77.5q39 0 75 -16t59 -45h2v402h140v-848h-140zM273 108q51 0 83.5 42.5t32.5 95.5t-32.5 95t-83.5 42t-83.5 -42t-32.5 -95t32.5 -95.5t83.5 -42.5z" />
    <glyph glyph-name="e" unicode="e" horiz-adv-x="501" 
d="M486 223h-323q0 -54 23.5 -93t73.5 -39q61 0 94 67l129 -21q-25 -73 -85 -113t-138 -40q-112 0 -178.5 71.5t-66.5 185.5q0 117 61.5 191.5t176.5 74.5t174 -74.5t59 -192.5v-17zM167 310h187q-6 41 -30.5 70t-62.5 29q-40 0 -64 -28.5t-30 -70.5z" />
    <glyph glyph-name="f" unicode="f" horiz-adv-x="303" 
d="M195 373v-373h-140v373h-47v118h47v144q0 99 45 162t140 63q36 0 67 -16v-125q-34 17 -57 17q-10 0 -18 -2.5t-14 -8.5t-10 -11.5t-6.5 -15t-4 -16t-2 -18.5t-0.5 -17.5v-17v-14.5v-124h112v-118h-112z" />
    <glyph glyph-name="g" unicode="g" horiz-adv-x="562" 
d="M512 491v-461q0 -292 -238 -292q-96 0 -169.5 55t-78.5 149h148q5 -39 31 -62.5t66 -23.5q35 0 57 13.5t31 41t11 49t2 57.5v32h-2q-22 -30 -58.5 -47.5t-75.5 -17.5q-103 0 -162 76t-59 182q0 108 62 186.5t166 78.5q37 0 71.5 -17t55.5 -46h2v47h140zM273 108
q51 0 83.5 42t32.5 95t-32.5 95.5t-83.5 42.5t-83.5 -42.5t-32.5 -95.5t32.5 -95t83.5 -42z" />
    <glyph glyph-name="h" unicode="h" horiz-adv-x="540" 
d="M50 848h140v-398h2q41 57 128 57q170 0 170 -207v-300h-140v260v38t-4 33.5t-11 34t-22.5 20t-38.5 9.5q-29 0 -47.5 -14t-25.5 -41.5t-9 -46.5t-2 -50v-243h-140v848z" />
    <glyph glyph-name="i" unicode="i" horiz-adv-x="253" 
d="M197 491v-491h-140v491h140zM127 780q34 0 58.5 -24.5t24.5 -58.5q0 -35 -24 -59t-59 -24t-59 24t-24 59q0 34 24.5 58.5t58.5 24.5z" />
    <glyph glyph-name="j" unicode="j" horiz-adv-x="253" 
d="M197 491v-753h-140v753h140zM127 780q34 0 58.5 -24.5t24.5 -58.5q0 -35 -24 -59t-59 -24t-59 24t-24 59q0 34 24.5 58.5t58.5 24.5z" />
    <glyph glyph-name="k" unicode="k" horiz-adv-x="526" 
d="M190 848v-537h2l147 180h182l-207 -216l223 -275h-184l-161 209h-2v-209h-140v848h140z" />
    <glyph glyph-name="l" unicode="l" horiz-adv-x="239" 
d="M190 848v-848h-140v848h140z" />
    <glyph glyph-name="m" unicode="m" horiz-adv-x="802" 
d="M190 491v-44h2q42 60 120 60q94 0 141 -77q22 36 61 56.5t82 20.5q156 0 156 -201v-306h-140v258q0 84 -18 112q-16 25 -48 25q-22 0 -37 -12t-22.5 -26.5t-11 -40t-4 -39t-0.5 -36.5v-241h-140v249v10v34.5t-3.5 34.5t-10 34.5t-20.5 22.5t-33 10q-26 0 -42.5 -14
t-22.5 -41t-7.5 -44.5t-1.5 -47.5v-7v-241h-140v491h140z" />
    <glyph glyph-name="n" unicode="n" horiz-adv-x="540" 
d="M190 491v-45h2q40 61 128 61q170 0 170 -207v-300h-140v260v38t-4 33.5t-11 34t-22.5 20t-38.5 9.5q-29 0 -47.5 -14t-25.5 -41.5t-9 -46.5t-2 -50v-243h-140v491h140z" />
    <glyph glyph-name="o" unicode="o" horiz-adv-x="548" 
d="M274 507q114 0 186 -73.5t72 -188.5t-71.5 -188t-186.5 -73t-186.5 73t-71.5 188t72 188.5t186 73.5zM274 383q-52 0 -84 -42t-32 -96q0 -53 32.5 -95t83.5 -42t83.5 42t32.5 95q0 54 -32 96t-84 42z" />
    <glyph glyph-name="p" unicode="p" horiz-adv-x="565" 
d="M190 491v-45q51 61 136 61q100 0 162 -78.5t62 -180.5q0 -107 -61.5 -185.5t-165.5 -78.5q-39 0 -75 16.5t-56 45.5h-2v-308h-140v753h140zM292 108q51 0 83.5 42.5t32.5 95.5t-32.5 95t-83.5 42t-83.5 -42t-32.5 -95t32.5 -95.5t83.5 -42.5z" />
    <glyph glyph-name="q" unicode="q" horiz-adv-x="565" 
d="M273 108q51 0 83.5 42.5t32.5 95.5t-32.5 95t-83.5 42t-83.5 -42t-32.5 -95t32.5 -95.5t83.5 -42.5zM515 491v-753h-140v308h-2q-21 -29 -57 -45.5t-75 -16.5q-103 0 -164.5 79t-61.5 185q0 104 61.5 181.5t162.5 77.5q39 0 75 -16t59 -45h2v45h140z" />
    <glyph glyph-name="r" unicode="r" horiz-adv-x="367" 
d="M190 491v-51h2q44 67 122 67q27 0 58 -12l-17 -130q-25 18 -58 18q-28 0 -48.5 -10t-31.5 -25t-17.5 -38t-8 -43t-1.5 -46v-221h-140v491h140z" />
    <glyph glyph-name="s" unicode="s" horiz-adv-x="410" 
d="M362 456l-60 -81q-36 34 -74 34q-18 0 -32 -12.5t-14 -29.5q0 -10 5 -18.5t16.5 -15t21.5 -11t28.5 -11.5t29.5 -12q46 -20 73.5 -51.5t27.5 -89.5q0 -79 -55.5 -126.5t-135.5 -47.5q-105 0 -173 82l64 83q51 -57 104 -57q24 0 40 14.5t16 38.5q0 12 -4.5 21.5
t-16.5 17.5t-20.5 12t-28.5 12l-28 11q-46 20 -72 48t-26 81q0 69 43.5 114t112.5 45q100 0 158 -51z" />
    <glyph glyph-name="t" unicode="t" horiz-adv-x="274" 
d="M207 373v-373h-140v373h-48v118h48v166h140v-166h86v-118h-86z" />
    <glyph glyph-name="u" unicode="u" horiz-adv-x="535" 
d="M47 491h140v-266q0 -123 80 -123t80 123v266h140v-289q0 -218 -220 -218t-220 218v289z" />
    <glyph glyph-name="v" unicode="v" horiz-adv-x="488" 
d="M136 491l115 -277l101 277h153l-226 -501h-72l-225 501h154z" />
    <glyph glyph-name="w" unicode="w" horiz-adv-x="783" 
d="M135 491l102 -283l120 299h67l121 -303l104 287h152l-228 -501h-71l-105 299l-117 -299h-72l-226 501h153z" />
    <glyph glyph-name="x" unicode="x" horiz-adv-x="549" 
d="M192 267l-169 224h170l91 -127l78 127h172l-174 -224l207 -267h-172l-126 171l-113 -171h-174z" />
    <glyph glyph-name="y" unicode="y" horiz-adv-x="520" 
d="M191 75l-209 416h159l117 -279l126 279h156l-357 -753h-154z" />
    <glyph glyph-name="z" unicode="z" horiz-adv-x="481" 
d="M232 118h233v-118h-466l251 373h-212v118h443z" />
    <glyph glyph-name="braceleft" unicode="{" horiz-adv-x="389" 
d="M68 300v73q75 33 75 151v182q0 55 29.5 93.5t55.5 38.5h92v-91h-40q-15 0 -22 -10t-8 -20t-1 -32v-177q0 -52 -18 -93.5t-31.5 -55.5t-26.5 -23q8 -5 18 -15t24.5 -29.5t24 -53t9.5 -73.5v-177q0 -22 1 -32t8 -20t22 -10h40v-91h-92q-26 0 -55.5 38.5t-29.5 93.5v182
q0 118 -75 151z" />
    <glyph glyph-name="bar" unicode="|" horiz-adv-x="538" 
d="M328 786v-1000h-118v1000h118z" />
    <glyph glyph-name="braceright" unicode="}" horiz-adv-x="389" 
d="M321 373v-73q-75 -33 -75 -151v-182q0 -55 -29.5 -93.5t-55.5 -38.5h-92v91h40q15 0 22 10t8 20t1 32v177q0 40 9.5 73.5t24 53t24.5 29.5t18 15q-13 9 -26.5 23t-31.5 55.5t-18 93.5v177q0 22 -1 32t-8 20t-22 10h-40v91h92q26 0 55.5 -38.5t29.5 -93.5v-182
q0 -118 75 -151z" />
    <glyph glyph-name="asciitilde" unicode="~" 
d="M446 363l99 -90l-28 -47t-31.5 -43t-44.5 -40t-48 -13q-10 0 -21 2t-18.5 4.5t-19 8.5t-16.5 9l-17 10.5t-15 9.5q-10 6 -34 23t-38 23.5t-26 6.5q-24 0 -56 -77l-99 88l28.5 41.5t36 50t39 36t49.5 17.5q47 0 112 -51q55 -47 94 -47q26 0 54 78z" />
    <glyph glyph-name="uni00A0" unicode="&#xa0;" horiz-adv-x="289" 
 />
    <glyph glyph-name="exclamdown" unicode="&#xa1;" horiz-adv-x="325" 
d="M162 514q37 0 63 -25.5t26 -62.5t-26 -63.5t-63 -26.5t-63 26.5t-26 63.5t26 62.5t63 25.5zM91 -264v537h142v-537h-142z" />
    <glyph glyph-name="cent" unicode="&#xa2;" 
d="M389 724v-87q56 -10 83 -25v-141q-45 50 -101 50t-90 -43.5t-34 -101.5q0 -57 34.5 -98t90.5 -41q64 0 98 50h2v-141q-38 -20 -83 -25v-93h-73v91q-96 8 -153.5 84.5t-57.5 175.5q0 102 56.5 175t154.5 86v84h73z" />
    <glyph glyph-name="sterling" unicode="&#xa3;" 
d="M119 0l-109 19q46 142 146 146q11 30 11 59q0 43 -22 84h-131v66h93q-41 82 -41 153q0 108 72.5 177.5t180.5 69.5q226 0 238 -258l-147 -17l2 34q2 43 -26.5 80.5t-70.5 37.5q-49 0 -76.5 -38.5t-27.5 -89.5q0 -55 42 -139l5 -10h136v-66h-112q6 -34 4 -78
q0 -13 -2 -38.5t-2 -37.5l67 -27q38 -16 63 -16q38 0 55 59l104 -22q-39 -156 -154 -156q-42 0 -119 29q-75 29 -112 29q-51 0 -67 -50z" />
    <glyph glyph-name="currency" unicode="&#xa4;" 
d="M289 550q86 0 141 -44l62 57l74 -74l-60 -55q38 -57 38 -134t-38 -134l60 -55l-74 -74l-62 57q-55 -44 -141 -44t-141 44l-62 -57l-74 74l60 55q-38 57 -38 134t38 134l-60 55l74 74l62 -57q55 44 141 44zM289 146q67 0 113 44.5t46 109.5q0 68 -45 111t-114 43t-114 -43
t-45 -111q0 -65 46 -109.5t113 -44.5z" />
    <glyph glyph-name="yen" unicode="&#xa5;" 
d="M288 492l139 262h171l-174 -305h134v-66h-175l-21 -37v-36h196v-66h-196v-244h-147v244h-196v66h196v36l-24 37h-172v66h134l-174 305h171z" />
    <glyph glyph-name="brokenbar" unicode="&#xa6;" horiz-adv-x="538" 
d="M328 161v-250h-118v250h118zM328 661v-250h-118v250h118z" />
    <glyph glyph-name="section" unicode="&#xa7;" horiz-adv-x="577" 
d="M236 342l139 -85q37 31 37 78q0 29 -14.5 45t-44.5 34q-5 3 -7 4l-141 87q-40 -30 -40 -76q0 -9 2 -17.5t3.5 -14t7.5 -12.5t8 -10t11.5 -9.5t11.5 -7.5t14 -8t13 -8zM482 684h-125q-4 31 -24 52t-52 21q-28 0 -45 -22.5t-17 -51.5q0 -18 6 -32.5t21.5 -27t24 -18
t30.5 -17.5l107 -60q66 -37 97.5 -72t31.5 -98q0 -44 -19 -87t-51 -73q40 -47 40 -123q0 -90 -61.5 -148.5t-160.5 -58.5q-104 0 -171.5 63t-62.5 168h138q-1 -46 26 -82t72 -36q36 0 58.5 26.5t22.5 62.5q0 18 -6.5 32.5t-22 27.5t-24.5 18.5t-31 17.5l-133 72
q-56 30 -83.5 66.5t-27.5 94.5q0 91 74 163q-33 49 -33 112q0 83 57.5 134.5t142.5 51.5q83 0 140 -47.5t61 -128.5z" />
    <glyph glyph-name="dieresis" unicode="&#xa8;" horiz-adv-x="400" 
d="M95 762q33 0 56.5 -23.5t23.5 -56.5t-23.5 -56.5t-56.5 -23.5t-56.5 23.5t-23.5 56.5t23.5 56.5t56.5 23.5zM306 762q33 0 56.5 -23.5t23.5 -56.5t-23.5 -56.5t-56.5 -23.5t-56.5 23.5t-23.5 56.5t23.5 56.5t56.5 23.5z" />
    <glyph glyph-name="copyright" unicode="&#xa9;" horiz-adv-x="800" 
d="M400 -20q-165 0 -279.5 115.5t-114.5 281.5t114.5 281.5t279.5 115.5t279.5 -115.5t114.5 -281.5t-114.5 -281.5t-279.5 -115.5zM400 688q-129 0 -218.5 -89.5t-89.5 -221.5t90 -221.5t218 -89.5t218 89.5t90 221.5t-89.5 221.5t-218.5 89.5zM602 459h-88q-8 37 -41 57
t-73 20q-59 0 -98 -47.5t-39 -108.5t39 -108.5t98 -47.5q40 0 73 20t41 57h88q-14 -73 -68 -118t-134 -45q-95 0 -159 71t-64 171t64 171t159 71q80 0 134 -45t68 -118z" />
    <glyph glyph-name="ordfeminine" unicode="&#xaa;" horiz-adv-x="339" 
d="M332 764v-294h-89v27h-2q-29 -37 -86 -37q-67 0 -107 47.5t-40 110.5q0 62 40 109t106 47q55 0 89 -37v27h89zM176 534q33 0 54.5 26t21.5 57q0 32 -21 57.5t-55 25.5t-55 -25.5t-21 -57.5q0 -31 21.5 -57t54.5 -26z" />
    <glyph glyph-name="guillemotleft" unicode="&#xab;" horiz-adv-x="514" 
d="M339 320l125 -182l-87 -58l-159 240l159 243l86 -56zM139 320l125 -182l-87 -58l-159 240l159 243l86 -56z" />
    <glyph glyph-name="logicalnot" unicode="&#xac;" 
d="M427 142v173h-394v118h512v-291h-118z" />
    <glyph glyph-name="uni00AD" unicode="&#xad;" horiz-adv-x="330" 
d="M43 378h244v-115h-244v115z" />
    <glyph glyph-name="registered" unicode="&#xae;" horiz-adv-x="800" 
d="M400 -20q-165 0 -279.5 115.5t-114.5 281.5t114.5 281.5t279.5 115.5t279.5 -115.5t114.5 -281.5t-114.5 -281.5t-279.5 -115.5zM400 688q-129 0 -218.5 -89.5t-89.5 -221.5t90 -221.5t218 -89.5t218 89.5t90 221.5t-89.5 221.5t-218.5 89.5zM483 337l100 -164h-94
l-96 164h-72v-164h-86v412h200q81 0 120.5 -25t39.5 -101q0 -114 -112 -122zM321 411h116q38 0 56 11.5t18 43.5q0 16 -8 26t-25.5 13.5t-29 4.5t-32.5 1h-95v-100z" />
    <glyph glyph-name="macron" unicode="&#xaf;" horiz-adv-x="400" 
d="M9 754h382v-88h-382v88z" />
    <glyph glyph-name="degree" unicode="&#xb0;" horiz-adv-x="400" 
d="M350 624q0 -62 -44 -106t-106 -44t-106 44t-44 106q-1 62 43.5 106t106.5 44t106 -44t44 -106zM199 706q-34 0 -58 -24t-23 -58q1 -35 25 -58.5t58 -23.5t57.5 24t23.5 58t-24.5 58t-58.5 24z" />
    <glyph glyph-name="plusminus" unicode="&#xb1;" 
d="M33 0v118h512v-118h-512zM230 630h118v-172h197v-118h-197v-172h-118v172h-197v118h197v172z" />
    <glyph glyph-name="twosuperior" unicode="&#xb2;" horiz-adv-x="346" 
d="M178 379h160v-77h-330l125 145q1 1 16 18.5l20.5 24t19 24t20 28l15 25t12 26.5t3.5 23q0 33 -16.5 53.5t-46.5 20.5t-46 -24.5t-14 -53.5h-101q5 68 46.5 111t114.5 43q67 0 113 -42t46 -103q0 -46 -22 -83.5t-63 -81.5z" />
    <glyph glyph-name="threesuperior" unicode="&#xb3;" horiz-adv-x="346" 
d="M120 644h-91q6 60 45.5 95t104.5 35q63 0 102 -34.5t39 -92.5q0 -65 -47 -95q31 -13 47 -44t16 -66q0 -66 -45.5 -105t-117.5 -39q-67 0 -112.5 41t-49.5 102h96q2 -28 20.5 -47t49.5 -19q30 0 48 22t18 50q0 29 -19 51.5t-50 20.5l-18 -1v63h11q30 0 46 17t16 46
q0 24 -15 40.5t-41 16.5q-24 0 -38 -17t-15 -40z" />
    <glyph glyph-name="acute" unicode="&#xb4;" horiz-adv-x="380" 
d="M199 774l102 -62l-151 -150l-71 44z" />
    <glyph glyph-name="mu" unicode="&#xb5;" horiz-adv-x="535" 
d="M47 491h140v-266q0 -123 80 -123t80 123v266h140v-289q0 -218 -220 -218q-7 0 -14 1t-12 1.5t-11.5 3.5t-9 4t-9.5 5t-8 4.5t-9 5.5l-7 5v-276h-140v753z" />
    <glyph glyph-name="paragraph" unicode="&#xb6;" horiz-adv-x="577" 
d="M558 754v-94h-61v-813h-104v813h-62v-813h-104v436q-86 0 -142.5 57t-63.5 157q-7 95 56.5 176t158.5 81h322z" />
    <glyph glyph-name="periodcentered" unicode="&#xb7;" horiz-adv-x="289" 
d="M145 345q37 0 63 -25.5t26 -62.5t-26 -63.5t-63 -26.5t-63 26.5t-26 63.5t26 62.5t63 25.5z" />
    <glyph glyph-name="cedilla" unicode="&#xb8;" horiz-adv-x="380" 
d="M193 -20l92 -47l-116 -139l-74 38z" />
    <glyph glyph-name="onesuperior" unicode="&#xb9;" horiz-adv-x="346" 
d="M157 678h-64v76h160v-452h-96v376z" />
    <glyph glyph-name="ordmasculine" unicode="&#xba;" horiz-adv-x="339" 
d="M170 774q74 0 121 -44t47 -113t-46.5 -113t-121.5 -44t-121.5 44t-46.5 113t47 113t121 44zM170 700q-34 0 -54.5 -25t-20.5 -57t21 -58t54 -26t54 26t21 58t-20.5 57t-54.5 25z" />
    <glyph glyph-name="guillemotright" unicode="&#xbb;" horiz-adv-x="514" 
d="M50 138l125 182l-124 187l86 56l159 -243l-159 -240zM250 138l125 182l-124 187l86 56l159 -243l-159 -240z" />
    <glyph glyph-name="onequarter" unicode="&#xbc;" horiz-adv-x="867" 
d="M775 151h52v-71h-52v-80h-90v80h-215v39l218 342h87v-310zM685 151v180h-2l-103 -180h105zM583 780l68 -34l-404 -777l-69 35zM104 678h-64v76h160v-452h-96v376z" />
    <glyph glyph-name="onehalf" unicode="&#xbd;" horiz-adv-x="867" 
d="M537 780l68 -34l-404 -777l-69 35zM104 678h-64v76h160v-452h-96v376zM667 77h160v-77h-330l125 145q1 1 16 18.5l20.5 24t19 24t20 28l15 25t12 26.5t3.5 23q0 33 -16.5 53.5t-46.5 20.5t-46 -24.5t-14 -53.5h-101q5 68 46.5 111t114.5 43q67 0 113 -42t46 -103
q0 -46 -22 -83.5t-63 -81.5z" />
    <glyph glyph-name="threequarters" unicode="&#xbe;" horiz-adv-x="867" 
d="M775 151h52v-71h-52v-80h-90v80h-215v39l218 342h87v-310zM685 151v180h-2l-103 -180h105zM635 780l68 -34l-404 -777l-69 35zM149 644h-91q6 60 45.5 95t104.5 35q63 0 102 -34.5t39 -92.5q0 -65 -47 -95q31 -13 47 -44t16 -66q0 -66 -45.5 -105t-117.5 -39
q-67 0 -112.5 41t-49.5 102h96q2 -28 21 -47t49 -19t48 22t18 50q0 29 -19 51.5t-50 20.5l-18 -1v63h11q30 0 46 17t16 46q0 24 -15 40.5t-41 16.5q-24 0 -38 -17t-15 -40z" />
    <glyph glyph-name="questiondown" unicode="&#xbf;" horiz-adv-x="487" 
d="M339 253v-199q-16 4 -36 4q-53 0 -90.5 -30t-37.5 -82q0 -34 18.5 -61t50.5 -27t49.5 24.5t17.5 57.5v12h146q4 -90 -58.5 -153t-153.5 -63q-92 0 -153.5 61.5t-61.5 153.5q0 74 44.5 132t116.5 74l8 96h140zM267 514q37 0 63 -25.5t26 -62.5t-26 -63.5t-63 -26.5
t-63 26.5t-26 63.5t26 62.5t63 25.5z" />
    <glyph glyph-name="Agrave" unicode="&#xc0;" horiz-adv-x="676" 
d="M470 159h-262l-62 -159h-155l294 774h114l286 -774h-157zM429 279l-94 274h-2l-83 -274h179zM195 925l82 50l96 -135l-57 -35z" />
    <glyph glyph-name="Aacute" unicode="&#xc1;" horiz-adv-x="676" 
d="M470 159h-262l-62 -159h-155l294 774h114l286 -774h-157zM429 279l-94 274h-2l-83 -274h179zM409 975l82 -50l-121 -120l-57 35z" />
    <glyph glyph-name="Acircumflex" unicode="&#xc2;" horiz-adv-x="676" 
d="M470 159h-262l-62 -159h-155l294 774h114l286 -774h-157zM429 279l-94 274h-2l-83 -274h179zM202 858l136 123l136 -123l-48 -53l-88 83l-88 -83z" />
    <glyph glyph-name="Atilde" unicode="&#xc3;" horiz-adv-x="676" 
d="M470 159h-262l-62 -159h-155l294 774h114l286 -774h-157zM429 279l-94 274h-2l-83 -274h179zM268 805h-60q4 41 24.5 76t54.5 35q17 0 55 -17q43 -18 47 -18q9 0 16 5.5t9.5 11t7.5 17.5h61q-7 -46 -29 -79.5t-59 -33.5q-15 0 -49 18q-32 17 -48 17q-24 0 -30 -32z" />
    <glyph glyph-name="Adieresis" unicode="&#xc4;" horiz-adv-x="676" 
d="M470 159h-262l-62 -159h-155l294 774h114l286 -774h-157zM429 279l-94 274h-2l-83 -274h179zM233 990q33 0 56.5 -23.5t23.5 -56.5t-23.5 -56.5t-56.5 -23.5t-56.5 23.5t-23.5 56.5t23.5 56.5t56.5 23.5zM444 990q33 0 56.5 -23.5t23.5 -56.5t-23.5 -56.5t-56.5 -23.5
t-56.5 23.5t-23.5 56.5t23.5 56.5t56.5 23.5z" />
    <glyph glyph-name="Aring" unicode="&#xc5;" horiz-adv-x="676" 
d="M470 159h-262l-62 -159h-155l294 774h114l286 -774h-157zM429 279l-94 274h-2l-83 -274h179zM338 1002q41 0 70.5 -29.5t29.5 -70.5q0 -42 -29.5 -71.5t-70.5 -29.5t-70.5 29.5t-29.5 71.5q0 41 29.5 70.5t70.5 29.5zM338 943q-17 0 -29 -12t-12 -29t12 -29.5t29 -12.5
t29 12.5t12 29.5t-12 29t-29 12z" />
    <glyph glyph-name="AE" unicode="&#xc6;" horiz-adv-x="921" 
d="M467 159h-261l-59 -159h-156l293 754h372l46 -128h-250l61 -167h246l46 -128h-246l75 -203h250l45 -128h-403zM427 279l-93 256h-2l-83 -256h178z" />
    <glyph glyph-name="Ccedilla" unicode="&#xc7;" horiz-adv-x="601" 
d="M558 730v-176q-66 80 -166 80q-101 0 -161.5 -78t-60.5 -182q0 -101 61.5 -177.5t159.5 -76.5q46 0 90.5 22t76.5 58v-175q-95 -45 -171 -45q-156 0 -262.5 116t-106.5 275q0 107 46 199t132.5 148t193.5 56q88 0 168 -44zM304 -20l92 -47l-116 -139l-74 38z" />
    <glyph glyph-name="Egrave" unicode="&#xc8;" horiz-adv-x="488" 
d="M444 626h-243v-166h234v-128h-234v-204h243v-128h-390v754h390v-128zM103 925l82 50l96 -135l-57 -35z" />
    <glyph glyph-name="Eacute" unicode="&#xc9;" horiz-adv-x="488" 
d="M444 626h-243v-166h234v-128h-234v-204h243v-128h-390v754h390v-128zM291 975l82 -50l-121 -120l-57 35z" />
    <glyph glyph-name="Ecircumflex" unicode="&#xca;" horiz-adv-x="488" 
d="M444 626h-243v-166h234v-128h-234v-204h243v-128h-390v754h390v-128zM108 858l136 123l136 -123l-48 -53l-88 83l-88 -83z" />
    <glyph glyph-name="Edieresis" unicode="&#xcb;" horiz-adv-x="488" 
d="M444 626h-243v-166h234v-128h-234v-204h243v-128h-390v754h390v-128zM139 990q33 0 56.5 -23.5t23.5 -56.5t-23.5 -56.5t-56.5 -23.5t-56.5 23.5t-23.5 56.5t23.5 56.5t56.5 23.5zM350 990q33 0 56.5 -23.5t23.5 -56.5t-23.5 -56.5t-56.5 -23.5t-56.5 23.5t-23.5 56.5
t23.5 56.5t56.5 23.5z" />
    <glyph glyph-name="Igrave" unicode="&#xcc;" horiz-adv-x="254" 
d="M201 754v-754h-147v754h147zM-22 925l82 50l96 -135l-57 -35z" />
    <glyph glyph-name="Iacute" unicode="&#xcd;" horiz-adv-x="254" 
d="M201 754v-754h-147v754h147zM189 975l82 -50l-121 -120l-57 35z" />
    <glyph glyph-name="Icircumflex" unicode="&#xce;" horiz-adv-x="254" 
d="M201 754v-754h-147v754h147zM-43 848l170 154l170 -154l-60 -66l-110 104l-110 -104z" />
    <glyph glyph-name="Idieresis" unicode="&#xcf;" horiz-adv-x="254" 
d="M201 754v-754h-147v754h147zM22 990q33 0 56.5 -23.5t23.5 -56.5t-23.5 -56.5t-56.5 -23.5t-56.5 23.5t-23.5 56.5t23.5 56.5t56.5 23.5zM233 990q33 0 56.5 -23.5t23.5 -56.5t-23.5 -56.5t-56.5 -23.5t-56.5 23.5t-23.5 56.5t23.5 56.5t56.5 23.5z" />
    <glyph glyph-name="Eth" unicode="&#xd0;" horiz-adv-x="646" 
d="M54 0v337h-72v120h72v297h210q162 0 263 -107.5t101 -270.5q0 -161 -102.5 -268.5t-262.5 -107.5h-209zM201 626v-169h113v-120h-113v-209h24q251 0 251 249t-251 249h-24z" />
    <glyph glyph-name="Ntilde" unicode="&#xd1;" horiz-adv-x="759" 
d="M54 0v774h106l397 -527h2v507h147v-769h-106l-397 527h-2v-512h-147zM272 832h-82q4 51 33 95t76 44q25 0 77 -21q57 -22 65 -22q13 0 22.5 7t13 13t11.5 22h83q-10 -57 -40 -99t-81 -42q-21 0 -69 22t-66 22q-31 0 -43 -41z" />
    <glyph glyph-name="Ograve" unicode="&#xd2;" horiz-adv-x="782" 
d="M764 378q0 -171 -102 -284.5t-271 -113.5t-271 113.5t-102 284.5t103.5 283.5t269.5 112.5t269.5 -112.5t103.5 -283.5zM612 384q0 97 -61 171t-160 74t-160 -74t-61 -171q0 -46 12 -90t37 -83t69.5 -62.5t102.5 -23.5t102.5 23.5t69.5 62.5t37 83t12 90zM240 925l82 50
l96 -135l-57 -35z" />
    <glyph glyph-name="Oacute" unicode="&#xd3;" horiz-adv-x="782" 
d="M764 378q0 -171 -102 -284.5t-271 -113.5t-271 113.5t-102 284.5t103.5 283.5t269.5 112.5t269.5 -112.5t103.5 -283.5zM612 384q0 97 -61 171t-160 74t-160 -74t-61 -171q0 -46 12 -90t37 -83t69.5 -62.5t102.5 -23.5t102.5 23.5t69.5 62.5t37 83t12 90zM458 975l82 -50
l-121 -120l-57 35z" />
    <glyph glyph-name="Ocircumflex" unicode="&#xd4;" horiz-adv-x="782" 
d="M764 378q0 -171 -102 -284.5t-271 -113.5t-271 113.5t-102 284.5t103.5 283.5t269.5 112.5t269.5 -112.5t103.5 -283.5zM612 384q0 97 -61 171t-160 74t-160 -74t-61 -171q0 -46 12 -90t37 -83t69.5 -62.5t102.5 -23.5t102.5 23.5t69.5 62.5t37 83t12 90zM255 858
l136 123l136 -123l-48 -53l-88 83l-88 -83z" />
    <glyph glyph-name="Otilde" unicode="&#xd5;" horiz-adv-x="782" 
d="M764 378q0 -171 -102 -284.5t-271 -113.5t-271 113.5t-102 284.5t103.5 283.5t269.5 112.5t269.5 -112.5t103.5 -283.5zM612 384q0 97 -61 171t-160 74t-160 -74t-61 -171q0 -46 12 -90t37 -83t69.5 -62.5t102.5 -23.5t102.5 23.5t69.5 62.5t37 83t12 90zM297 805h-60
q4 41 24.5 76t54.5 35q17 0 55 -17q43 -18 47 -18q9 0 16 5.5t9.5 11t7.5 17.5h61q-7 -46 -29 -79.5t-59 -33.5q-15 0 -49 18q-32 17 -48 17q-24 0 -30 -32z" />
    <glyph glyph-name="Odieresis" unicode="&#xd6;" horiz-adv-x="782" 
d="M764 378q0 -171 -102 -284.5t-271 -113.5t-271 113.5t-102 284.5t103.5 283.5t269.5 112.5t269.5 -112.5t103.5 -283.5zM612 384q0 97 -61 171t-160 74t-160 -74t-61 -171q0 -46 12 -90t37 -83t69.5 -62.5t102.5 -23.5t102.5 23.5t69.5 62.5t37 83t12 90zM286 990
q33 0 56.5 -23.5t23.5 -56.5t-23.5 -56.5t-56.5 -23.5t-56.5 23.5t-23.5 56.5t23.5 56.5t56.5 23.5zM497 990q33 0 56.5 -23.5t23.5 -56.5t-23.5 -56.5t-56.5 -23.5t-56.5 23.5t-23.5 56.5t23.5 56.5t56.5 23.5z" />
    <glyph glyph-name="multiply" unicode="&#xd7;" 
d="M33 428l84 84l173 -173l171 173l84 -84l-172 -172l172 -172l-84 -84l-172 173l-172 -173l-84 84l173 172z" />
    <glyph glyph-name="Oslash" unicode="&#xd8;" horiz-adv-x="782" 
d="M584 504l-321 -338q52 -41 128 -41q58 0 102.5 23.5t69.5 62.5t37 83t12 90q0 65 -28 120zM199 247l320 339q-54 43 -128 43q-99 0 -160 -74t-61 -171q0 -75 29 -137zM-4 33l94 99q-72 103 -72 246q0 171 103.5 283.5t269.5 112.5q135 0 232 -78l86 90l77 -68l-93 -98
q71 -102 71 -242q0 -171 -102 -284.5t-271 -113.5q-135 0 -231 77l-90 -95z" />
    <glyph glyph-name="Ugrave" unicode="&#xd9;" horiz-adv-x="660" 
d="M50 303v451h147v-422q0 -34 1.5 -59.5t9.5 -59t21 -54.5t39 -36t62 -15t62 15t39 36t21 54.5t9.5 59t1.5 59.5v422h147v-451q0 -148 -68 -235.5t-212 -87.5t-212 87.5t-68 235.5zM191 925l82 50l96 -135l-57 -35z" />
    <glyph glyph-name="Uacute" unicode="&#xda;" horiz-adv-x="660" 
d="M50 303v451h147v-422q0 -34 1.5 -59.5t9.5 -59t21 -54.5t39 -36t62 -15t62 15t39 36t21 54.5t9.5 59t1.5 59.5v422h147v-451q0 -148 -68 -235.5t-212 -87.5t-212 87.5t-68 235.5zM397 975l82 -50l-121 -120l-57 35z" />
    <glyph glyph-name="Ucircumflex" unicode="&#xdb;" horiz-adv-x="660" 
d="M50 303v451h147v-422q0 -34 1.5 -59.5t9.5 -59t21 -54.5t39 -36t62 -15t62 15t39 36t21 54.5t9.5 59t1.5 59.5v422h147v-451q0 -148 -68 -235.5t-212 -87.5t-212 87.5t-68 235.5zM160 848l170 154l170 -154l-60 -66l-110 104l-110 -104z" />
    <glyph glyph-name="Udieresis" unicode="&#xdc;" horiz-adv-x="660" 
d="M50 303v451h147v-422q0 -34 1.5 -59.5t9.5 -59t21 -54.5t39 -36t62 -15t62 15t39 36t21 54.5t9.5 59t1.5 59.5v422h147v-451q0 -148 -68 -235.5t-212 -87.5t-212 87.5t-68 235.5zM233 990q33 0 56.5 -23.5t23.5 -56.5t-23.5 -56.5t-56.5 -23.5t-56.5 23.5t-23.5 56.5
t23.5 56.5t56.5 23.5zM444 990q33 0 56.5 -23.5t23.5 -56.5t-23.5 -56.5t-56.5 -23.5t-56.5 23.5t-23.5 56.5t23.5 56.5t56.5 23.5z" />
    <glyph glyph-name="Yacute" unicode="&#xdd;" horiz-adv-x="587" 
d="M218 346l-234 408h171l132 -262l144 262h172l-238 -408v-346h-147v346zM346 975l82 -50l-121 -120l-57 35z" />
    <glyph glyph-name="Thorn" unicode="&#xde;" horiz-adv-x="528" 
d="M201 162v-162h-147v754h147v-120h53q261 0 261 -234q0 -119 -62 -178.5t-179 -59.5h-73zM201 512v-228h30q71 0 102.5 24t31.5 93q0 67 -34 89t-104 22h-26z" />
    <glyph glyph-name="germandbls" unicode="&#xdf;" horiz-adv-x="561" 
d="M50 0v604q0 119 53 187.5t169 68.5q98 0 159 -60t61 -158q0 -102 -76 -162q65 -28 97.5 -89.5t32.5 -136.5q0 -122 -75.5 -196t-198.5 -74h-20v122q64 -2 105.5 43t41.5 111t-40.5 108t-106.5 43v118q50 -1 78 30t28 81q0 41 -23.5 69.5t-63.5 28.5q-17 0 -30 -6
t-21.5 -14.5t-14.5 -24.5t-9 -27.5t-4.5 -32t-2 -30.5t0 -31.5t0.5 -25.5v-546h-140z" />
    <glyph glyph-name="agrave" unicode="&#xe0;" horiz-adv-x="565" 
d="M514 491v-491h-138v45h-2q-47 -61 -133 -61q-103 0 -164.5 79t-61.5 185q0 104 61.5 181.5t162.5 77.5q84 0 137 -62v46h138zM273 108q51 0 84 42.5t33 95.5t-33 95t-84 42t-83.5 -42t-32.5 -95t32.5 -95.5t83.5 -42.5zM126 670l82 50l96 -135l-57 -35z" />
    <glyph glyph-name="aacute" unicode="&#xe1;" horiz-adv-x="565" 
d="M514 491v-491h-138v45h-2q-47 -61 -133 -61q-103 0 -164.5 79t-61.5 185q0 104 61.5 181.5t162.5 77.5q84 0 137 -62v46h138zM273 108q51 0 84 42.5t33 95.5t-33 95t-84 42t-83.5 -42t-32.5 -95t32.5 -95.5t83.5 -42.5zM320 720l82 -50l-121 -120l-57 35z" />
    <glyph glyph-name="acircumflex" unicode="&#xe2;" horiz-adv-x="565" 
d="M514 491v-491h-138v45h-2q-47 -61 -133 -61q-103 0 -164.5 79t-61.5 185q0 104 61.5 181.5t162.5 77.5q84 0 137 -62v46h138zM273 108q51 0 84 42.5t33 95.5t-33 95t-84 42t-83.5 -42t-32.5 -95t32.5 -95.5t83.5 -42.5zM147 603l136 123l136 -123l-48 -53l-88 83l-88 -83
z" />
    <glyph glyph-name="atilde" unicode="&#xe3;" horiz-adv-x="565" 
d="M514 491v-491h-138v45h-2q-47 -61 -133 -61q-103 0 -164.5 79t-61.5 185q0 104 61.5 181.5t162.5 77.5q84 0 137 -62v46h138zM273 108q51 0 84 42.5t33 95.5t-33 95t-84 42t-83.5 -42t-32.5 -95t32.5 -95.5t83.5 -42.5zM207 550h-60q4 41 24.5 76t54.5 35q17 0 55 -17
q43 -18 47 -18q9 0 16 5.5t9.5 11t7.5 17.5h61q-7 -46 -29 -79.5t-59 -33.5q-15 0 -49 18q-32 17 -48 17q-24 0 -30 -32z" />
    <glyph glyph-name="adieresis" unicode="&#xe4;" horiz-adv-x="565" 
d="M514 491v-491h-138v45h-2q-47 -61 -133 -61q-103 0 -164.5 79t-61.5 185q0 104 61.5 181.5t162.5 77.5q84 0 137 -62v46h138zM273 108q51 0 84 42.5t33 95.5t-33 95t-84 42t-83.5 -42t-32.5 -95t32.5 -95.5t83.5 -42.5zM178 762q33 0 56.5 -23.5t23.5 -56.5t-23.5 -56.5
t-56.5 -23.5t-56.5 23.5t-23.5 56.5t23.5 56.5t56.5 23.5zM389 762q33 0 56.5 -23.5t23.5 -56.5t-23.5 -56.5t-56.5 -23.5t-56.5 23.5t-23.5 56.5t23.5 56.5t56.5 23.5z" />
    <glyph glyph-name="aring" unicode="&#xe5;" horiz-adv-x="565" 
d="M514 491v-491h-138v45h-2q-47 -61 -133 -61q-103 0 -164.5 79t-61.5 185q0 104 61.5 181.5t162.5 77.5q84 0 137 -62v46h138zM273 108q51 0 84 42.5t33 95.5t-33 95t-84 42t-83.5 -42t-32.5 -95t32.5 -95.5t83.5 -42.5zM283 774q41 0 70.5 -29.5t29.5 -70.5
q0 -42 -29.5 -71.5t-70.5 -29.5t-70.5 29.5t-29.5 71.5q0 41 29.5 70.5t70.5 29.5zM283 715q-17 0 -29 -12t-12 -29t12 -29.5t29 -12.5t29 12.5t12 29.5t-12 29t-29 12z" />
    <glyph glyph-name="ae" unicode="&#xe6;" horiz-adv-x="792" 
d="M456 310h187q-6 41 -30.5 70t-62.5 29q-40 0 -64 -28.5t-30 -70.5zM222 217q-32 0 -54.5 -18t-22.5 -49q0 -32 24.5 -49.5t58.5 -17.5q31 0 57 19t26 49q0 32 -27.5 49t-61.5 17zM777 223h-323q0 -54 23.5 -93t73.5 -39q61 0 94 67l129 -21q-25 -73 -85 -113t-138 -40
q-122 0 -175 81q-30 -39 -77 -60t-98 -21q-80 0 -135 41.5t-55 119.5q0 76 54.5 118.5t132.5 42.5q64 0 114 -27v16q0 52 -30 78.5t-83 26.5q-60 0 -120 -22v109q80 20 137 20q49 0 94 -18.5t67 -56.5q59 75 167 75q115 0 174 -74.5t59 -192.5v-17z" />
    <glyph glyph-name="ccedilla" unicode="&#xe7;" horiz-adv-x="421" 
d="M384 476v-135q-48 48 -103 48q-56 0 -90 -44t-34 -102q0 -60 35.5 -100.5t93.5 -40.5q56 0 98 47v-135q-54 -30 -121 -30q-107 0 -177.5 76t-70.5 184q0 111 72.5 187t182.5 76q64 0 114 -31zM214 -20l92 -47l-116 -139l-74 38z" />
    <glyph glyph-name="egrave" unicode="&#xe8;" horiz-adv-x="501" 
d="M486 223h-323q0 -54 23.5 -93t73.5 -39q61 0 94 67l129 -21q-25 -73 -85 -113t-138 -40q-112 0 -178.5 71.5t-66.5 185.5q0 117 61.5 191.5t176.5 74.5t174 -74.5t59 -192.5v-17zM167 310h187q-6 41 -30.5 70t-62.5 29q-40 0 -64 -28.5t-30 -70.5zM92 670l82 50l96 -135
l-57 -35z" />
    <glyph glyph-name="eacute" unicode="&#xe9;" horiz-adv-x="501" 
d="M486 223h-323q0 -54 23.5 -93t73.5 -39q61 0 94 67l129 -21q-25 -73 -85 -113t-138 -40q-112 0 -178.5 71.5t-66.5 185.5q0 117 61.5 191.5t176.5 74.5t174 -74.5t59 -192.5v-17zM167 310h187q-6 41 -30.5 70t-62.5 29q-40 0 -64 -28.5t-30 -70.5zM318 720l82 -50
l-121 -120l-57 35z" />
    <glyph glyph-name="ecircumflex" unicode="&#xea;" horiz-adv-x="501" 
d="M486 223h-323q0 -54 23.5 -93t73.5 -39q61 0 94 67l129 -21q-25 -73 -85 -113t-138 -40q-112 0 -178.5 71.5t-66.5 185.5q0 117 61.5 191.5t176.5 74.5t174 -74.5t59 -192.5v-17zM167 310h187q-6 41 -30.5 70t-62.5 29q-40 0 -64 -28.5t-30 -70.5zM115 603l136 123
l136 -123l-48 -53l-88 83l-88 -83z" />
    <glyph glyph-name="edieresis" unicode="&#xeb;" horiz-adv-x="501" 
d="M486 223h-323q0 -54 23.5 -93t73.5 -39q61 0 94 67l129 -21q-25 -73 -85 -113t-138 -40q-112 0 -178.5 71.5t-66.5 185.5q0 117 61.5 191.5t176.5 74.5t174 -74.5t59 -192.5v-17zM167 310h187q-6 41 -30.5 70t-62.5 29q-40 0 -64 -28.5t-30 -70.5zM146 762
q33 0 56.5 -23.5t23.5 -56.5t-23.5 -56.5t-56.5 -23.5t-56.5 23.5t-23.5 56.5t23.5 56.5t56.5 23.5zM357 762q33 0 56.5 -23.5t23.5 -56.5t-23.5 -56.5t-56.5 -23.5t-56.5 23.5t-23.5 56.5t23.5 56.5t56.5 23.5z" />
    <glyph glyph-name="igrave" unicode="&#xec;" horiz-adv-x="253" 
d="M197 491v-491h-140v491h140zM-25 670l82 50l96 -135l-57 -35z" />
    <glyph glyph-name="iacute" unicode="&#xed;" horiz-adv-x="253" 
d="M197 491v-491h-140v491h140zM187 720l82 -50l-121 -120l-57 35z" />
    <glyph glyph-name="icircumflex" unicode="&#xee;" horiz-adv-x="253" 
d="M197 491v-491h-140v491h140zM-43 620l170 154l170 -154l-60 -66l-110 104l-110 -104z" />
    <glyph glyph-name="idieresis" unicode="&#xef;" horiz-adv-x="253" 
d="M197 491v-491h-140v491h140zM22 762q33 0 56.5 -23.5t23.5 -56.5t-23.5 -56.5t-56.5 -23.5t-56.5 23.5t-23.5 56.5t23.5 56.5t56.5 23.5zM233 762q33 0 56.5 -23.5t23.5 -56.5t-23.5 -56.5t-56.5 -23.5t-56.5 23.5t-23.5 56.5t23.5 56.5t56.5 23.5z" />
    <glyph glyph-name="eth" unicode="&#xf0;" horiz-adv-x="548" 
d="M73 786l99 75q56 -43 106 -92l120 76l60 -60l-120 -77q31 -34 49.5 -56.5t49.5 -69t49 -89t32 -104.5t14 -128q0 -78 -25.5 -135t-66.5 -86.5t-82.5 -42.5t-83.5 -13q-109 0 -183.5 71t-74.5 191q0 115 70 186t172 71q37 0 80 -15q-40 80 -106 152l-120 -77l-60 61
l120 76q-46 45 -99 86zM274 383q-52 0 -84 -42t-32 -96q0 -53 32.5 -95t83.5 -42t83.5 42t32.5 95q0 54 -32 96t-84 42z" />
    <glyph glyph-name="ntilde" unicode="&#xf1;" horiz-adv-x="540" 
d="M190 491v-45h2q40 61 128 61q170 0 170 -207v-300h-140v260v38t-4 33.5t-11 34t-22.5 20t-38.5 9.5q-29 0 -47.5 -14t-25.5 -41.5t-9 -46.5t-2 -50v-243h-140v491h140zM162 604h-82q4 51 33 95t76 44q25 0 77 -21q57 -22 65 -22q13 0 22.5 7t13 13t11.5 22h83
q-10 -57 -40 -99t-81 -42q-21 0 -69 22t-66 22q-31 0 -43 -41z" />
    <glyph glyph-name="ograve" unicode="&#xf2;" horiz-adv-x="548" 
d="M274 507q114 0 186 -73.5t72 -188.5t-71.5 -188t-186.5 -73t-186.5 73t-71.5 188t72 188.5t186 73.5zM274 383q-52 0 -84 -42t-32 -96q0 -53 32.5 -95t83.5 -42t83.5 42t32.5 95q0 54 -32 96t-84 42zM124 670l82 50l96 -135l-57 -35z" />
    <glyph glyph-name="oacute" unicode="&#xf3;" horiz-adv-x="548" 
d="M274 507q114 0 186 -73.5t72 -188.5t-71.5 -188t-186.5 -73t-186.5 73t-71.5 188t72 188.5t186 73.5zM274 383q-52 0 -84 -42t-32 -96q0 -53 32.5 -95t83.5 -42t83.5 42t32.5 95q0 54 -32 96t-84 42zM339 720l82 -50l-121 -120l-57 35z" />
    <glyph glyph-name="ocircumflex" unicode="&#xf4;" horiz-adv-x="548" 
d="M274 507q114 0 186 -73.5t72 -188.5t-71.5 -188t-186.5 -73t-186.5 73t-71.5 188t72 188.5t186 73.5zM274 383q-52 0 -84 -42t-32 -96q0 -53 32.5 -95t83.5 -42t83.5 42t32.5 95q0 54 -32 96t-84 42zM138 603l136 123l136 -123l-48 -53l-88 83l-88 -83z" />
    <glyph glyph-name="otilde" unicode="&#xf5;" horiz-adv-x="548" 
d="M274 507q114 0 186 -73.5t72 -188.5t-71.5 -188t-186.5 -73t-186.5 73t-71.5 188t72 188.5t186 73.5zM274 383q-52 0 -84 -42t-32 -96q0 -53 32.5 -95t83.5 -42t83.5 42t32.5 95q0 54 -32 96t-84 42zM198 550h-60q4 41 24.5 76t54.5 35q17 0 55 -17q43 -18 47 -18
q9 0 16 5.5t9.5 11t7.5 17.5h61q-7 -46 -29 -79.5t-59 -33.5q-15 0 -49 18q-32 17 -48 17q-24 0 -30 -32z" />
    <glyph glyph-name="odieresis" unicode="&#xf6;" horiz-adv-x="548" 
d="M274 507q114 0 186 -73.5t72 -188.5t-71.5 -188t-186.5 -73t-186.5 73t-71.5 188t72 188.5t186 73.5zM274 383q-52 0 -84 -42t-32 -96q0 -53 32.5 -95t83.5 -42t83.5 42t32.5 95q0 54 -32 96t-84 42zM169 762q33 0 56.5 -23.5t23.5 -56.5t-23.5 -56.5t-56.5 -23.5
t-56.5 23.5t-23.5 56.5t23.5 56.5t56.5 23.5zM380 762q33 0 56.5 -23.5t23.5 -56.5t-23.5 -56.5t-56.5 -23.5t-56.5 23.5t-23.5 56.5t23.5 56.5t56.5 23.5z" />
    <glyph glyph-name="divide" unicode="&#xf7;" 
d="M289 146q34 0 58.5 -24.5t24.5 -58.5q0 -35 -24 -59t-59 -24t-59 24t-24 59q0 34 24.5 58.5t58.5 24.5zM289 532q34 0 58.5 -24.5t24.5 -58.5q0 -35 -24 -59t-59 -24t-59 24t-24 59q0 34 24.5 58.5t58.5 24.5zM33 197v118h512v-118h-512z" />
    <glyph glyph-name="oslash" unicode="&#xf8;" horiz-adv-x="564" 
d="M172 181l175 172q-32 30 -73 30q-52 0 -84 -42t-32 -96q0 -33 14 -64zM382 295l-169 -167q27 -20 61 -20q51 0 83.5 42t32.5 95q0 24 -8 50zM-6 10l73 72q-51 66 -51 163q0 115 72 188.5t186 73.5q98 0 166 -55l75 74l55 -50l-80 -80q42 -65 42 -151q0 -115 -71.5 -188
t-186.5 -73q-90 0 -153 46l-72 -71z" />
    <glyph glyph-name="ugrave" unicode="&#xf9;" horiz-adv-x="535" 
d="M47 491h140v-266q0 -123 80 -123t80 123v266h140v-289q0 -218 -220 -218t-220 218v289zM110 670l82 50l96 -135l-57 -35z" />
    <glyph glyph-name="uacute" unicode="&#xfa;" horiz-adv-x="535" 
d="M47 491h140v-266q0 -123 80 -123t80 123v266h140v-289q0 -218 -220 -218t-220 218v289zM335 720l82 -50l-121 -120l-57 35z" />
    <glyph glyph-name="ucircumflex" unicode="&#xfb;" horiz-adv-x="535" 
d="M47 491h140v-266q0 -123 80 -123t80 123v266h140v-289q0 -218 -220 -218t-220 218v289zM98 620l170 154l170 -154l-60 -66l-110 104l-110 -104z" />
    <glyph glyph-name="udieresis" unicode="&#xfc;" horiz-adv-x="535" 
d="M47 491h140v-266q0 -123 80 -123t80 123v266h140v-289q0 -218 -220 -218t-220 218v289zM163 762q33 0 56.5 -23.5t23.5 -56.5t-23.5 -56.5t-56.5 -23.5t-56.5 23.5t-23.5 56.5t23.5 56.5t56.5 23.5zM374 762q33 0 56.5 -23.5t23.5 -56.5t-23.5 -56.5t-56.5 -23.5
t-56.5 23.5t-23.5 56.5t23.5 56.5t56.5 23.5z" />
    <glyph glyph-name="yacute" unicode="&#xfd;" horiz-adv-x="520" 
d="M191 75l-209 416h159l117 -279l126 279h156l-357 -753h-154zM322 720l82 -50l-121 -120l-57 35z" />
    <glyph glyph-name="thorn" unicode="&#xfe;" horiz-adv-x="565" 
d="M190 848v-402q51 61 136 61q100 0 162 -78.5t62 -180.5q0 -107 -61.5 -185.5t-165.5 -78.5q-39 0 -75 16.5t-56 45.5h-2v-308h-140v1110h140zM292 108q51 0 83.5 42.5t32.5 95.5t-32.5 95t-83.5 42t-83.5 -42t-32.5 -95t32.5 -95.5t83.5 -42.5z" />
    <glyph glyph-name="ydieresis" unicode="&#xff;" horiz-adv-x="520" 
d="M191 75l-209 416h159l117 -279l126 279h156l-357 -753h-154zM163 762q33 0 56.5 -23.5t23.5 -56.5t-23.5 -56.5t-56.5 -23.5t-56.5 23.5t-23.5 56.5t23.5 56.5t56.5 23.5zM374 762q33 0 56.5 -23.5t23.5 -56.5t-23.5 -56.5t-56.5 -23.5t-56.5 23.5t-23.5 56.5t23.5 56.5
t56.5 23.5z" />
    <glyph glyph-name="Abreve" unicode="&#x102;" horiz-adv-x="676" 
d="M200 929h78q7 -26 19 -40q18 -16 41 -16q48 0 60 56h78q-5 -55 -43.5 -89.5t-94.5 -34.5t-94.5 34.5t-43.5 89.5zM470 159h-262l-62 -159h-155l294 774h114l286 -774h-157zM429 279l-94 274h-2l-83 -274h179z" />
    <glyph glyph-name="abreve" unicode="&#x103;" horiz-adv-x="565" 
d="M144 674h78q7 -26 19 -40q18 -16 41 -16q48 0 60 56h78q-5 -55 -43.5 -89.5t-94.5 -34.5t-94.5 34.5t-43.5 89.5zM514 491v-491h-138v45h-2q-47 -61 -133 -61q-103 0 -164.5 79t-61.5 185q0 104 61.5 181.5t162.5 77.5q84 0 137 -62v46h138zM273 108q51 0 84 42.5
t33 95.5t-33 95t-84 42t-83.5 -42t-32.5 -95t32.5 -95.5t83.5 -42.5z" />
    <glyph glyph-name="Dcroat" unicode="&#x110;" horiz-adv-x="646" 
d="M54 0v337h-72v120h72v297h210q162 0 263 -107.5t101 -270.5q0 -161 -102.5 -268.5t-262.5 -107.5h-209zM201 626v-169h113v-120h-113v-209h24q251 0 251 249t-251 249h-24z" />
    <glyph glyph-name="dcroat" unicode="&#x111;" horiz-adv-x="565" 
d="M375 0v46h-2q-21 -29 -57 -45.5t-75 -16.5q-103 0 -164.5 79t-61.5 185q0 104 61.5 181.5t162.5 77.5q39 0 75 -16t59 -45h2v196h-85v115h85v91h140v-91h49v-115h-49v-642h-140zM273 108q51 0 83.5 42.5t32.5 95.5t-32.5 95t-83.5 42t-83.5 -42t-32.5 -95t32.5 -95.5
t83.5 -42.5z" />
    <glyph glyph-name="Itilde" unicode="&#x128;" horiz-adv-x="254" 
d="M45 805h-60q4 41 24.5 76t54.5 35q17 0 55 -17q43 -18 47 -18q9 0 16 5.5t9.5 11t7.5 17.5h61q-7 -46 -29 -79.5t-59 -33.5q-15 0 -49 18q-32 17 -48 17q-24 0 -30 -32zM201 754v-754h-147v754h147z" />
    <glyph glyph-name="itilde" unicode="&#x129;" horiz-adv-x="253" 
d="M197 491v-491h-140v491h140zM47 550h-60q4 41 24.5 76t54.5 35q17 0 55 -17q43 -18 47 -18q9 0 16 5.5t9.5 11t7.5 17.5h61q-7 -46 -29 -79.5t-59 -33.5q-15 0 -49 18q-32 17 -48 17q-24 0 -30 -32z" />
    <glyph glyph-name="dotlessi" unicode="&#x131;" horiz-adv-x="253" 
d="M197 491v-491h-140v491h140z" />
    <glyph glyph-name="Lslash" unicode="&#x141;" horiz-adv-x="434" 
d="M14 254v124l72 50v326h147v-230l106 73v-126l-106 -72v-271h208v-128h-355v303z" />
    <glyph glyph-name="lslash" unicode="&#x142;" horiz-adv-x="283" 
d="M72 0v374l-74 -50v106l74 50v368h140v-279l73 49v-106l-73 -49v-463h-140z" />
    <glyph glyph-name="OE" unicode="&#x152;" horiz-adv-x="1039" 
d="M757 626v-167h227v-128h-227v-203h238v-128h-384v85q-91 -105 -231 -105q-101 0 -185.5 58t-130.5 148t-46 189q0 101 45.5 192t130 149t186.5 58q67 0 128 -27.5t101 -77.5h2v85h384v-128h-238zM377 629q-96 0 -157.5 -77t-61.5 -177q0 -98 61.5 -174t157.5 -76
q97 0 159 76t62 174q0 100 -62 177t-159 77z" />
    <glyph glyph-name="oe" unicode="&#x153;" horiz-adv-x="873" 
d="M535 310h187q-6 41 -30.5 70t-62.5 29q-40 0 -64 -28.5t-30 -70.5zM272 383q-52 0 -84 -42t-32 -96q0 -53 32.5 -95t83.5 -42t83.5 42t32.5 95q0 54 -32 96t-84 42zM859 223h-323q0 -54 23.5 -93t73.5 -39q61 0 94 67l129 -21q-25 -73 -85 -113t-138 -40q-124 0 -182 85
q-63 -85 -179 -85q-115 0 -186.5 73t-71.5 188t72 188.5t186 73.5q107 0 179 -82q59 82 175 82q115 0 174 -74.5t59 -192.5v-17z" />
    <glyph glyph-name="Scaron" unicode="&#x160;" horiz-adv-x="526" 
d="M478 690l-69 -102q-46 62 -113 62q-36 0 -64 -24.5t-28 -60.5q0 -25 16.5 -44.5t43 -32t58.5 -25.5t63.5 -30.5t58 -41t43 -63t16.5 -90.5q0 -115 -67 -186.5t-181 -71.5q-144 0 -232 147l95 93q16 -46 53.5 -78t82.5 -32q44 0 70.5 32t26.5 77q0 64 -73 99q-12 6 -58 24
q-83 34 -125.5 79.5t-42.5 126.5q0 95 63 160.5t157 65.5q52 0 112.5 -23.5t93.5 -60.5zM99 937l60 65l118 -104l119 104l60 -65l-179 -155z" />
    <glyph glyph-name="scaron" unicode="&#x161;" horiz-adv-x="410" 
d="M362 456l-60 -81q-36 34 -74 34q-18 0 -32 -12.5t-14 -29.5q0 -10 5 -18.5t16.5 -15t21.5 -11t28.5 -11.5t29.5 -12q46 -20 73.5 -51.5t27.5 -89.5q0 -79 -55.5 -126.5t-135.5 -47.5q-105 0 -173 82l64 83q51 -57 104 -57q24 0 40 14.5t16 38.5q0 12 -4.5 21.5
t-16.5 17.5t-20.5 12t-28.5 12l-28 11q-46 20 -72 48t-26 81q0 69 43.5 114t112.5 45q100 0 158 -51zM26 709l60 65l118 -104l119 104l60 -65l-179 -155z" />
    <glyph glyph-name="Utilde" unicode="&#x168;" horiz-adv-x="660" 
d="M260 805h-60q4 41 24.5 76t54.5 35q17 0 55 -17q43 -18 47 -18q9 0 16 5.5t9.5 11t7.5 17.5h61q-7 -46 -29 -79.5t-59 -33.5q-15 0 -49 18q-32 17 -48 17q-24 0 -30 -32zM50 303v451h147v-422q0 -34 1.5 -59.5t9.5 -59t21 -54.5t39 -36t62 -15t62 15t39 36t21 54.5
t9.5 59t1.5 59.5v422h147v-451q0 -148 -68 -235.5t-212 -87.5t-212 87.5t-68 235.5z" />
    <glyph glyph-name="utilde" unicode="&#x169;" horiz-adv-x="535" 
d="M198 550h-60q4 41 24.5 76t54.5 35q17 0 55 -17q43 -18 47 -18q9 0 16 5.5t9.5 11t7.5 17.5h61q-7 -46 -29 -79.5t-59 -33.5q-15 0 -49 18q-32 17 -48 17q-24 0 -30 -32zM47 491h140v-266q0 -123 80 -123t80 123v266h140v-289q0 -218 -220 -218t-220 218v289z" />
    <glyph glyph-name="Ydieresis" unicode="&#x178;" horiz-adv-x="587" 
d="M218 346l-234 408h171l132 -262l144 262h172l-238 -408v-346h-147v346zM189 990q33 0 56.5 -23.5t23.5 -56.5t-23.5 -56.5t-56.5 -23.5t-56.5 23.5t-23.5 56.5t23.5 56.5t56.5 23.5zM400 990q33 0 56.5 -23.5t23.5 -56.5t-23.5 -56.5t-56.5 -23.5t-56.5 23.5t-23.5 56.5
t23.5 56.5t56.5 23.5z" />
    <glyph glyph-name="Zcaron" unicode="&#x17d;" horiz-adv-x="575" 
d="M239 128h313v-128h-547l332 626h-281v128h514zM124 937l60 65l118 -104l119 104l60 -65l-179 -155z" />
    <glyph glyph-name="zcaron" unicode="&#x17e;" horiz-adv-x="481" 
d="M232 118h233v-118h-466l251 373h-212v118h443zM70 709l60 65l118 -104l119 104l60 -65l-179 -155z" />
    <glyph glyph-name="florin" unicode="&#x192;" 
d="M381 504h107l-10 -72h-108l-47 -291q-10 -60 -19.5 -99t-29 -82.5t-47 -68t-72 -41t-103.5 -16.5l-56 4l20 126l33 -2q70 0 98 49q21 38 38 151l43 270h-60l10 72h62l19 115q17 100 63 156t140 56q50 0 88 -21l-20 -121q-29 17 -59 17q-14 0 -25.5 -5t-19 -17
l-12.5 -20.5t-9.5 -27.5t-5.5 -24.5t-4 -24.5z" />
    <glyph glyph-name="Ohorn" unicode="&#x1a0;" horiz-adv-x="782" 
d="M764 378q0 -171 -102 -284.5t-271 -113.5t-271 113.5t-102 284.5t103.5 283.5t269.5 112.5q103 0 186 -47l39 113l102 -11l-75 -150q121 -113 121 -301zM612 384q0 97 -61 171t-160 74t-160 -74t-61 -171q0 -46 12 -90t37 -83t69.5 -62.5t102.5 -23.5t102.5 23.5
t69.5 62.5t37 83t12 90z" />
    <glyph glyph-name="ohorn" unicode="&#x1a1;" horiz-adv-x="548" 
d="M274 507q70 0 127 -30l34 97l102 -11l-69 -138q64 -72 64 -180q0 -115 -71.5 -188t-186.5 -73t-186.5 73t-71.5 188t72 188.5t186 73.5zM274 383q-52 0 -84 -42t-32 -96q0 -53 32.5 -95t83.5 -42t83.5 42t32.5 95q0 54 -32 96t-84 42z" />
    <glyph glyph-name="Uhorn" unicode="&#x1af;" horiz-adv-x="660" 
d="M50 303v451h147v-422q0 -34 1.5 -59.5t9.5 -59t21 -54.5t39 -36t62 -15t62 15t39 36t21 54.5t9.5 59t1.5 59.5v422h100l33 96l102 -11l-88 -177v-359q0 -148 -68 -235.5t-212 -87.5t-212 87.5t-68 235.5z" />
    <glyph glyph-name="uhorn" unicode="&#x1b0;" horiz-adv-x="535" 
d="M47 491h140v-266q0 -123 80 -123t80 123v266h96l32 93l102 -11l-90 -181v-190q0 -218 -220 -218t-220 218v289z" />
    <glyph glyph-name="circumflex" unicode="&#x2c6;" horiz-adv-x="400" 
d="M30 620l170 154l170 -154l-60 -66l-110 104l-110 -104z" />
    <glyph glyph-name="caron" unicode="&#x2c7;" horiz-adv-x="400" 
d="M21 709l60 65l118 -104l119 104l60 -65l-179 -155z" />
    <glyph glyph-name="uni02C9" unicode="&#x2c9;" horiz-adv-x="400" 
d="M9 754h382v-88h-382v88z" />
    <glyph glyph-name="breve" unicode="&#x2d8;" horiz-adv-x="400" 
d="M27 754h98q9 -35 24 -50q21 -21 51 -21q59 0 75 71h98q-7 -70 -55 -113t-118 -43t-118 43t-55 113z" />
    <glyph glyph-name="dotaccent" unicode="&#x2d9;" horiz-adv-x="380" 
d="M190 762q33 0 56.5 -23.5t23.5 -56.5t-23.5 -56.5t-56.5 -23.5t-56.5 23.5t-23.5 56.5t23.5 56.5t56.5 23.5z" />
    <glyph glyph-name="ring" unicode="&#x2da;" horiz-adv-x="380" 
d="M190 774q41 0 70.5 -29.5t29.5 -70.5q0 -42 -29.5 -71.5t-70.5 -29.5t-70.5 29.5t-29.5 71.5q0 41 29.5 70.5t70.5 29.5zM190 715q-17 0 -29 -12t-12 -29t12 -29.5t29 -12.5t29 12.5t12 29.5t-12 29t-29 12z" />
    <glyph glyph-name="ogonek" unicode="&#x2db;" horiz-adv-x="380" 
d="M173 -20h70v-2q-54 -35 -54 -80q0 -19 12.5 -32.5t31.5 -13.5q24 0 48 16l-14 -75q-26 -18 -69 -18q-40 0 -69.5 23.5t-29.5 62.5q0 70 74 119z" />
    <glyph glyph-name="tilde" unicode="&#x2dc;" horiz-adv-x="400" 
d="M92 604h-82q4 51 33 95t76 44q25 0 77 -21q57 -22 65 -22q13 0 22.5 7t13 13t11.5 22h83q-10 -57 -40 -99t-81 -42q-21 0 -69 22t-66 22q-31 0 -43 -41z" />
    <glyph glyph-name="hungarumlaut" unicode="&#x2dd;" horiz-adv-x="420" 
d="M125 774l102 -62l-151 -150l-71 44zM314 774l102 -62l-151 -150l-71 44z" />
    <glyph glyph-name="uni03A9" unicode="&#x3a9;" horiz-adv-x="729" 
d="M180 108v3q-54 55 -90 135.5t-36 177.5q0 148 88 250.5t226 102.5q72 0 131.5 -31t96.5 -81t57 -110.5t20 -122.5q0 -100 -36.5 -184t-90.5 -137v-3h142v-108h-270v79q53 37 88.5 119t35.5 204q-1 109 -47 186t-129 77q-82 0 -131.5 -75t-49.5 -193q0 -113 36.5 -198.5
t87.5 -119.5v-79h-270v108h141z" />
    <glyph glyph-name="uni03BC" unicode="&#x3bc;" horiz-adv-x="535" 
d="M47 491h140v-266q0 -123 80 -123t80 123v266h140v-289q0 -218 -220 -218q-7 0 -14 1t-12 1.5t-11.5 3.5t-9 4t-9.5 5t-8 4.5t-9 5.5l-7 5v-276h-140v753z" />
    <glyph glyph-name="pi" unicode="&#x3c0;" horiz-adv-x="625" 
d="M600 461h-74v-302q0 -99 14 -159h-126q-18 34 -18 154v307h-145q-5 -105 -24 -242.5t-45 -218.5h-125q26 94 45 230t21 231q-65 0 -102 -10l-15 88q45 36 169 36h435z" />
    <glyph glyph-name="uni1EA0" unicode="&#x1ea0;" horiz-adv-x="676" 
d="M339 -44q25 0 42 -17.5t17 -41.5q0 -25 -17 -42t-42 -17t-42 17t-17 42q0 24 17 41.5t42 17.5zM470 159h-262l-62 -159h-155l294 774h114l286 -774h-157zM429 279l-94 274h-2l-83 -274h179z" />
    <glyph glyph-name="uni1EA1" unicode="&#x1ea1;" horiz-adv-x="565" 
d="M264 -44q25 0 42 -17.5t17 -41.5q0 -25 -17 -42t-42 -17t-42 17t-17 42q0 24 17 41.5t42 17.5zM514 491v-491h-138v45h-2q-47 -61 -133 -61q-103 0 -164.5 79t-61.5 185q0 104 61.5 181.5t162.5 77.5q84 0 137 -62v46h138zM273 108q51 0 84 42.5t33 95.5t-33 95t-84 42
t-83.5 -42t-32.5 -95t32.5 -95.5t83.5 -42.5z" />
    <glyph glyph-name="uni1EA2" unicode="&#x1ea2;" horiz-adv-x="676" 
d="M314 805v89q2 11 17 11q44 0 44 37q0 11 -7.5 19t-18.5 8q-12 0 -20.5 -8t-8.5 -19h-67q0 39 30 63q29 21 68 21t64 -21q31 -26 31 -63q0 -30 -19 -50q-15 -18 -47 -29v-58h-66zM470 159h-262l-62 -159h-155l294 774h114l286 -774h-157zM429 279l-94 274h-2l-83 -274h179
z" />
    <glyph glyph-name="uni1EA3" unicode="&#x1ea3;" horiz-adv-x="565" 
d="M322 550h-66v89q2 11 17 11q44 0 44 37q0 11 -7.5 19t-18.5 8q-12 0 -20.5 -8t-8.5 -19h-67q0 39 30 63q29 21 68 21t64 -21q31 -26 31 -63q0 -30 -19 -50q-15 -18 -47 -29v-58zM514 491v-491h-138v45h-2q-47 -61 -133 -61q-103 0 -164.5 79t-61.5 185q0 104 61.5 181.5
t162.5 77.5q84 0 137 -62v46h138zM273 108q51 0 84 42.5t33 95.5t-33 95t-84 42t-83.5 -42t-32.5 -95t32.5 -95.5t83.5 -42.5z" />
    <glyph glyph-name="uni1EA4" unicode="&#x1ea4;" horiz-adv-x="676" 
d="M504 1095l82 -50l-121 -120l-57 35zM470 159h-262l-62 -159h-155l294 774h114l286 -774h-157zM429 279l-94 274h-2l-83 -274h179zM202 858l136 123l136 -123l-48 -53l-88 83l-88 -83z" />
    <glyph glyph-name="uni1EA5" unicode="&#x1ea5;" horiz-adv-x="565" 
d="M449 840l82 -50l-121 -120l-57 35zM514 491v-491h-138v45h-2q-47 -61 -133 -61q-103 0 -164.5 79t-61.5 185q0 104 61.5 181.5t162.5 77.5q84 0 137 -62v46h138zM273 108q51 0 84 42.5t33 95.5t-33 95t-84 42t-83.5 -42t-32.5 -95t32.5 -95.5t83.5 -42.5zM147 603
l136 123l136 -123l-48 -53l-88 83l-88 -83z" />
    <glyph glyph-name="uni1EA6" unicode="&#x1ea6;" horiz-adv-x="676" 
d="M347 1045l82 50l96 -135l-57 -35zM470 159h-262l-62 -159h-155l294 774h114l286 -774h-157zM429 279l-94 274h-2l-83 -274h179zM202 858l136 123l136 -123l-48 -53l-88 83l-88 -83z" />
    <glyph glyph-name="uni1EA7" unicode="&#x1ea7;" horiz-adv-x="565" 
d="M292 790l82 50l96 -135l-57 -35zM514 491v-491h-138v45h-2q-47 -61 -133 -61q-103 0 -164.5 79t-61.5 185q0 104 61.5 181.5t162.5 77.5q84 0 137 -62v46h138zM273 108q51 0 84 42.5t33 95.5t-33 95t-84 42t-83.5 -42t-32.5 -95t32.5 -95.5t83.5 -42.5zM147 603l136 123
l136 -123l-48 -53l-88 83l-88 -83z" />
    <glyph glyph-name="uni1EA8" unicode="&#x1ea8;" horiz-adv-x="676" 
d="M526 925h-66v89q2 11 17 11q44 0 44 37q0 11 -7.5 19t-18.5 8q-12 0 -20.5 -8t-8.5 -19h-67q0 39 30 63q29 21 68 21t64 -21q31 -26 31 -63q0 -30 -19 -50q-15 -18 -47 -29v-58zM470 159h-262l-62 -159h-155l294 774h114l286 -774h-157zM429 279l-94 274h-2l-83 -274h179
zM202 858l136 123l136 -123l-48 -53l-88 83l-88 -83z" />
    <glyph glyph-name="uni1EA9" unicode="&#x1ea9;" horiz-adv-x="565" 
d="M471 670h-66v89q2 11 17 11q44 0 44 37q0 11 -7.5 19t-18.5 8q-12 0 -20.5 -8t-8.5 -19h-67q0 39 30 63q29 21 68 21t64 -21q31 -26 31 -63q0 -30 -19 -50q-15 -18 -47 -29v-58zM514 491v-491h-138v45h-2q-47 -61 -133 -61q-103 0 -164.5 79t-61.5 185q0 104 61.5 181.5
t162.5 77.5q84 0 137 -62v46h138zM273 108q51 0 84 42.5t33 95.5t-33 95t-84 42t-83.5 -42t-32.5 -95t32.5 -95.5t83.5 -42.5zM147 603l136 123l136 -123l-48 -53l-88 83l-88 -83z" />
    <glyph glyph-name="uni1EAA" unicode="&#x1eaa;" horiz-adv-x="676" 
d="M257 990h-60q4 41 24.5 76t54.5 35q17 0 55 -17q43 -18 47 -18q9 0 16 5.5t9.5 11t7.5 17.5h61q-7 -46 -29 -79.5t-59 -33.5q-15 0 -49 18q-32 17 -48 17q-24 0 -30 -32zM470 159h-262l-62 -159h-155l294 774h114l286 -774h-157zM429 279l-94 274h-2l-83 -274h179z
M202 858l136 123l136 -123l-48 -53l-88 83l-88 -83z" />
    <glyph glyph-name="uni1EAB" unicode="&#x1eab;" horiz-adv-x="565" 
d="M202 735h-60q4 41 24.5 76t54.5 35q17 0 55 -17q43 -18 47 -18q9 0 16 5.5t9.5 11t7.5 17.5h61q-7 -46 -29 -79.5t-59 -33.5q-15 0 -49 18q-32 17 -48 17q-24 0 -30 -32zM514 491v-491h-138v45h-2q-47 -61 -133 -61q-103 0 -164.5 79t-61.5 185q0 104 61.5 181.5
t162.5 77.5q84 0 137 -62v46h138zM273 108q51 0 84 42.5t33 95.5t-33 95t-84 42t-83.5 -42t-32.5 -95t32.5 -95.5t83.5 -42.5zM147 603l136 123l136 -123l-48 -53l-88 83l-88 -83z" />
    <glyph glyph-name="uni1EAC" unicode="&#x1eac;" horiz-adv-x="676" 
d="M470 159h-262l-62 -159h-155l294 774h114l286 -774h-157zM429 279l-94 274h-2l-83 -274h179zM202 858l136 123l136 -123l-48 -53l-88 83l-88 -83zM339 -44q25 0 42 -17.5t17 -41.5q0 -25 -17 -42t-42 -17t-42 17t-17 42q0 24 17 41.5t42 17.5z" />
    <glyph glyph-name="uni1EAD" unicode="&#x1ead;" horiz-adv-x="565" 
d="M514 491v-491h-138v45h-2q-47 -61 -133 -61q-103 0 -164.5 79t-61.5 185q0 104 61.5 181.5t162.5 77.5q84 0 137 -62v46h138zM273 108q51 0 84 42.5t33 95.5t-33 95t-84 42t-83.5 -42t-32.5 -95t32.5 -95.5t83.5 -42.5zM147 603l136 123l136 -123l-48 -53l-88 83l-88 -83
zM264 -44q25 0 42 -17.5t17 -41.5q0 -25 -17 -42t-42 -17t-42 17t-17 42q0 24 17 41.5t42 17.5z" />
    <glyph glyph-name="uni1EAE" unicode="&#x1eae;" horiz-adv-x="676" 
d="M395 1110l82 -50l-121 -120l-57 35zM200 929h78q7 -26 19 -40q18 -16 41 -16q48 0 60 56h78q-5 -55 -43.5 -89.5t-94.5 -34.5t-94.5 34.5t-43.5 89.5zM470 159h-262l-62 -159h-155l294 774h114l286 -774h-157zM429 279l-94 274h-2l-83 -274h179z" />
    <glyph glyph-name="uni1EAF" unicode="&#x1eaf;" horiz-adv-x="565" 
d="M339 855l82 -50l-121 -120l-57 35zM144 674h78q7 -26 19 -40q18 -16 41 -16q48 0 60 56h78q-5 -55 -43.5 -89.5t-94.5 -34.5t-94.5 34.5t-43.5 89.5zM514 491v-491h-138v45h-2q-47 -61 -133 -61q-103 0 -164.5 79t-61.5 185q0 104 61.5 181.5t162.5 77.5q84 0 137 -62v46
h138zM273 108q51 0 84 42.5t33 95.5t-33 95t-84 42t-83.5 -42t-32.5 -95t32.5 -95.5t83.5 -42.5z" />
    <glyph glyph-name="uni1EB0" unicode="&#x1eb0;" horiz-adv-x="676" 
d="M195 1060l82 50l96 -135l-57 -35zM200 929h78q7 -26 19 -40q18 -16 41 -16q48 0 60 56h78q-5 -55 -43.5 -89.5t-94.5 -34.5t-94.5 34.5t-43.5 89.5zM470 159h-262l-62 -159h-155l294 774h114l286 -774h-157zM429 279l-94 274h-2l-83 -274h179z" />
    <glyph glyph-name="uni1EB1" unicode="&#x1eb1;" horiz-adv-x="565" 
d="M139 805l82 50l96 -135l-57 -35zM144 674h78q7 -26 19 -40q18 -16 41 -16q48 0 60 56h78q-5 -55 -43.5 -89.5t-94.5 -34.5t-94.5 34.5t-43.5 89.5zM514 491v-491h-138v45h-2q-47 -61 -133 -61q-103 0 -164.5 79t-61.5 185q0 104 61.5 181.5t162.5 77.5q84 0 137 -62v46
h138zM273 108q51 0 84 42.5t33 95.5t-33 95t-84 42t-83.5 -42t-32.5 -95t32.5 -95.5t83.5 -42.5z" />
    <glyph glyph-name="uni1EB2" unicode="&#x1eb2;" horiz-adv-x="676" 
d="M374 940h-66v89q2 11 17 11q44 0 44 37q0 11 -7.5 19t-18.5 8q-12 0 -20.5 -8t-8.5 -19h-67q0 39 30 63q29 21 68 21t64 -21q31 -26 31 -63q0 -30 -19 -50q-15 -18 -47 -29v-58zM200 929h78q7 -26 19 -40q18 -16 41 -16q48 0 60 56h78q-5 -55 -43.5 -89.5t-94.5 -34.5
t-94.5 34.5t-43.5 89.5zM470 159h-262l-62 -159h-155l294 774h114l286 -774h-157zM429 279l-94 274h-2l-83 -274h179z" />
    <glyph glyph-name="uni1EB3" unicode="&#x1eb3;" horiz-adv-x="565" 
d="M318 685h-66v89q2 11 17 11q44 0 44 37q0 11 -7.5 19t-18.5 8q-12 0 -20.5 -8t-8.5 -19h-67q0 39 30 63q29 21 68 21t64 -21q31 -26 31 -63q0 -30 -19 -50q-15 -18 -47 -29v-58zM144 674h78q7 -26 19 -40q18 -16 41 -16q48 0 60 56h78q-5 -55 -43.5 -89.5t-94.5 -34.5
t-94.5 34.5t-43.5 89.5zM514 491v-491h-138v45h-2q-47 -61 -133 -61q-103 0 -164.5 79t-61.5 185q0 104 61.5 181.5t162.5 77.5q84 0 137 -62v46h138zM273 108q51 0 84 42.5t33 95.5t-33 95t-84 42t-83.5 -42t-32.5 -95t32.5 -95.5t83.5 -42.5z" />
    <glyph glyph-name="uni1EB4" unicode="&#x1eb4;" horiz-adv-x="676" 
d="M258 940h-60q4 41 24.5 76t54.5 35q17 0 55 -17q43 -18 47 -18q9 0 16 5.5t9.5 11t7.5 17.5h61q-7 -46 -29 -79.5t-59 -33.5q-15 0 -49 18q-32 17 -48 17q-24 0 -30 -32zM200 929h78q7 -26 19 -40q18 -16 41 -16q48 0 60 56h78q-5 -55 -43.5 -89.5t-94.5 -34.5
t-94.5 34.5t-43.5 89.5zM470 159h-262l-62 -159h-155l294 774h114l286 -774h-157zM429 279l-94 274h-2l-83 -274h179z" />
    <glyph glyph-name="uni1EB5" unicode="&#x1eb5;" horiz-adv-x="565" 
d="M202 685h-60q4 41 24.5 76t54.5 35q17 0 55 -17q43 -18 47 -18q9 0 16 5.5t9.5 11t7.5 17.5h61q-7 -46 -29 -79.5t-59 -33.5q-15 0 -49 18q-32 17 -48 17q-24 0 -30 -32zM144 674h78q7 -26 19 -40q18 -16 41 -16q48 0 60 56h78q-5 -55 -43.5 -89.5t-94.5 -34.5
t-94.5 34.5t-43.5 89.5zM514 491v-491h-138v45h-2q-47 -61 -133 -61q-103 0 -164.5 79t-61.5 185q0 104 61.5 181.5t162.5 77.5q84 0 137 -62v46h138zM273 108q51 0 84 42.5t33 95.5t-33 95t-84 42t-83.5 -42t-32.5 -95t32.5 -95.5t83.5 -42.5z" />
    <glyph glyph-name="uni1EB6" unicode="&#x1eb6;" horiz-adv-x="676" 
d="M200 929h78q7 -26 19 -40q18 -16 41 -16q48 0 60 56h78q-5 -55 -43.5 -89.5t-94.5 -34.5t-94.5 34.5t-43.5 89.5zM470 159h-262l-62 -159h-155l294 774h114l286 -774h-157zM429 279l-94 274h-2l-83 -274h179zM339 -44q25 0 42 -17.5t17 -41.5q0 -25 -17 -42t-42 -17
t-42 17t-17 42q0 24 17 41.5t42 17.5z" />
    <glyph glyph-name="uni1EB7" unicode="&#x1eb7;" horiz-adv-x="565" 
d="M144 674h78q7 -26 19 -40q18 -16 41 -16q48 0 60 56h78q-5 -55 -43.5 -89.5t-94.5 -34.5t-94.5 34.5t-43.5 89.5zM514 491v-491h-138v45h-2q-47 -61 -133 -61q-103 0 -164.5 79t-61.5 185q0 104 61.5 181.5t162.5 77.5q84 0 137 -62v46h138zM273 108q51 0 84 42.5
t33 95.5t-33 95t-84 42t-83.5 -42t-32.5 -95t32.5 -95.5t83.5 -42.5zM264 -44q25 0 42 -17.5t17 -41.5q0 -25 -17 -42t-42 -17t-42 17t-17 42q0 24 17 41.5t42 17.5z" />
    <glyph glyph-name="uni1EB8" unicode="&#x1eb8;" horiz-adv-x="488" 
d="M248 -44q25 0 42 -17.5t17 -41.5q0 -25 -17 -42t-42 -17t-42 17t-17 42q0 24 17 41.5t42 17.5zM444 626h-243v-166h234v-128h-234v-204h243v-128h-390v754h390v-128z" />
    <glyph glyph-name="uni1EB9" unicode="&#x1eb9;" horiz-adv-x="501" 
d="M250 -44q25 0 42 -17.5t17 -41.5q0 -25 -17 -42t-42 -17t-42 17t-17 42q0 24 17 41.5t42 17.5zM486 223h-323q0 -54 23.5 -93t73.5 -39q61 0 94 67l129 -21q-25 -73 -85 -113t-138 -40q-112 0 -178.5 71.5t-66.5 185.5q0 117 61.5 191.5t176.5 74.5t174 -74.5t59 -192.5
v-17zM167 310h187q-6 41 -30.5 70t-62.5 29q-40 0 -64 -28.5t-30 -70.5z" />
    <glyph glyph-name="uni1EBA" unicode="&#x1eba;" horiz-adv-x="488" 
d="M280 805h-66v89q2 11 17 11q44 0 44 37q0 11 -7.5 19t-18.5 8q-12 0 -20.5 -8t-8.5 -19h-67q0 39 30 63q29 21 68 21t64 -21q31 -26 31 -63q0 -30 -19 -50q-15 -18 -47 -29v-58zM444 626h-243v-166h234v-128h-234v-204h243v-128h-390v754h390v-128z" />
    <glyph glyph-name="uni1EBB" unicode="&#x1ebb;" horiz-adv-x="501" 
d="M280 550h-66v89q2 11 17 11q44 0 44 37q0 11 -7.5 19t-18.5 8q-12 0 -20.5 -8t-8.5 -19h-67q0 39 30 63q29 21 68 21t64 -21q31 -26 31 -63q0 -30 -19 -50q-15 -18 -47 -29v-58zM486 223h-323q0 -54 23.5 -93t73.5 -39q61 0 94 67l129 -21q-25 -73 -85 -113t-138 -40
q-112 0 -178.5 71.5t-66.5 185.5q0 117 61.5 191.5t176.5 74.5t174 -74.5t59 -192.5v-17zM167 310h187q-6 41 -30.5 70t-62.5 29q-40 0 -64 -28.5t-30 -70.5z" />
    <glyph glyph-name="uni1EBC" unicode="&#x1ebc;" horiz-adv-x="488" 
d="M188 805h-60q4 41 24.5 76t54.5 35q17 0 55 -17q43 -18 47 -18q9 0 16 5.5t9.5 11t7.5 17.5h61q-7 -46 -29 -79.5t-59 -33.5q-15 0 -49 18q-32 17 -48 17q-24 0 -30 -32zM444 626h-243v-166h234v-128h-234v-204h243v-128h-390v754h390v-128z" />
    <glyph glyph-name="uni1EBD" unicode="&#x1ebd;" horiz-adv-x="501" 
d="M177 550h-60q4 41 24.5 76t54.5 35q17 0 55 -17q43 -18 47 -18q9 0 16 5.5t9.5 11t7.5 17.5h61q-7 -46 -29 -79.5t-59 -33.5q-15 0 -49 18q-32 17 -48 17q-24 0 -30 -32zM486 223h-323q0 -54 23.5 -93t73.5 -39q61 0 94 67l129 -21q-25 -73 -85 -113t-138 -40
q-112 0 -178.5 71.5t-66.5 185.5q0 117 61.5 191.5t176.5 74.5t174 -74.5t59 -192.5v-17zM167 310h187q-6 41 -30.5 70t-62.5 29q-40 0 -64 -28.5t-30 -70.5z" />
    <glyph glyph-name="uni1EBE" unicode="&#x1ebe;" horiz-adv-x="488" 
d="M410 1095l82 -50l-121 -120l-57 35zM444 626h-243v-166h234v-128h-234v-204h243v-128h-390v754h390v-128zM108 858l136 123l136 -123l-48 -53l-88 83l-88 -83z" />
    <glyph glyph-name="uni1EBF" unicode="&#x1ebf;" horiz-adv-x="501" 
d="M417 840l82 -50l-121 -120l-57 35zM486 223h-323q0 -54 23.5 -93t73.5 -39q61 0 94 67l129 -21q-25 -73 -85 -113t-138 -40q-112 0 -178.5 71.5t-66.5 185.5q0 117 61.5 191.5t176.5 74.5t174 -74.5t59 -192.5v-17zM167 310h187q-6 41 -30.5 70t-62.5 29q-40 0 -64 -28.5
t-30 -70.5zM115 603l136 123l136 -123l-48 -53l-88 83l-88 -83z" />
    <glyph glyph-name="uni1EC0" unicode="&#x1ec0;" horiz-adv-x="488" 
d="M253 1045l82 50l96 -135l-57 -35zM444 626h-243v-166h234v-128h-234v-204h243v-128h-390v754h390v-128zM108 858l136 123l136 -123l-48 -53l-88 83l-88 -83z" />
    <glyph glyph-name="uni1EC1" unicode="&#x1ec1;" horiz-adv-x="501" 
d="M260 790l82 50l96 -135l-57 -35zM486 223h-323q0 -54 23.5 -93t73.5 -39q61 0 94 67l129 -21q-25 -73 -85 -113t-138 -40q-112 0 -178.5 71.5t-66.5 185.5q0 117 61.5 191.5t176.5 74.5t174 -74.5t59 -192.5v-17zM167 310h187q-6 41 -30.5 70t-62.5 29q-40 0 -64 -28.5
t-30 -70.5zM115 603l136 123l136 -123l-48 -53l-88 83l-88 -83z" />
    <glyph glyph-name="uni1EC2" unicode="&#x1ec2;" horiz-adv-x="488" 
d="M432 925h-66v89q2 11 17 11q44 0 44 37q0 11 -7.5 19t-18.5 8q-12 0 -20.5 -8t-8.5 -19h-67q0 39 30 63q29 21 68 21t64 -21q31 -26 31 -63q0 -30 -19 -50q-15 -18 -47 -29v-58zM444 626h-243v-166h234v-128h-234v-204h243v-128h-390v754h390v-128zM108 858l136 123
l136 -123l-48 -53l-88 83l-88 -83z" />
    <glyph glyph-name="uni1EC3" unicode="&#x1ec3;" horiz-adv-x="501" 
d="M439 670h-66v89q2 11 17 11q44 0 44 37q0 11 -7.5 19t-18.5 8q-12 0 -20.5 -8t-8.5 -19h-67q0 39 30 63q29 21 68 21t64 -21q31 -26 31 -63q0 -30 -19 -50q-15 -18 -47 -29v-58zM486 223h-323q0 -54 23.5 -93t73.5 -39q61 0 94 67l129 -21q-25 -73 -85 -113t-138 -40
q-112 0 -178.5 71.5t-66.5 185.5q0 117 61.5 191.5t176.5 74.5t174 -74.5t59 -192.5v-17zM167 310h187q-6 41 -30.5 70t-62.5 29q-40 0 -64 -28.5t-30 -70.5zM115 603l136 123l136 -123l-48 -53l-88 83l-88 -83z" />
    <glyph glyph-name="uni1EC4" unicode="&#x1ec4;" horiz-adv-x="488" 
d="M163 990h-60q4 41 24.5 76t54.5 35q17 0 55 -17q43 -18 47 -18q9 0 16 5.5t9.5 11t7.5 17.5h61q-7 -46 -29 -79.5t-59 -33.5q-15 0 -49 18q-32 17 -48 17q-24 0 -30 -32zM444 626h-243v-166h234v-128h-234v-204h243v-128h-390v754h390v-128zM108 858l136 123l136 -123
l-48 -53l-88 83l-88 -83z" />
    <glyph glyph-name="uni1EC5" unicode="&#x1ec5;" horiz-adv-x="501" 
d="M170 735h-60q4 41 24.5 76t54.5 35q17 0 55 -17q43 -18 47 -18q9 0 16 5.5t9.5 11t7.5 17.5h61q-7 -46 -29 -79.5t-59 -33.5q-15 0 -49 18q-32 17 -48 17q-24 0 -30 -32zM486 223h-323q0 -54 23.5 -93t73.5 -39q61 0 94 67l129 -21q-25 -73 -85 -113t-138 -40
q-112 0 -178.5 71.5t-66.5 185.5q0 117 61.5 191.5t176.5 74.5t174 -74.5t59 -192.5v-17zM167 310h187q-6 41 -30.5 70t-62.5 29q-40 0 -64 -28.5t-30 -70.5zM115 603l136 123l136 -123l-48 -53l-88 83l-88 -83z" />
    <glyph glyph-name="uni1EC6" unicode="&#x1ec6;" horiz-adv-x="488" 
d="M444 626h-243v-166h234v-128h-234v-204h243v-128h-390v754h390v-128zM108 858l136 123l136 -123l-48 -53l-88 83l-88 -83zM248 -44q25 0 42 -17.5t17 -41.5q0 -25 -17 -42t-42 -17t-42 17t-17 42q0 24 17 41.5t42 17.5z" />
    <glyph glyph-name="uni1EC7" unicode="&#x1ec7;" horiz-adv-x="501" 
d="M486 223h-323q0 -54 23.5 -93t73.5 -39q61 0 94 67l129 -21q-25 -73 -85 -113t-138 -40q-112 0 -178.5 71.5t-66.5 185.5q0 117 61.5 191.5t176.5 74.5t174 -74.5t59 -192.5v-17zM167 310h187q-6 41 -30.5 70t-62.5 29q-40 0 -64 -28.5t-30 -70.5zM115 603l136 123
l136 -123l-48 -53l-88 83l-88 -83zM250 -44q25 0 42 -17.5t17 -41.5q0 -25 -17 -42t-42 -17t-42 17t-17 42q0 24 17 41.5t42 17.5z" />
    <glyph glyph-name="uni1EC8" unicode="&#x1ec8;" horiz-adv-x="254" 
d="M162 805h-66v89q2 11 17 11q44 0 44 37q0 11 -7.5 19t-18.5 8q-12 0 -20.5 -8t-8.5 -19h-67q0 39 30 63q29 21 68 21t64 -21q31 -26 31 -63q0 -30 -19 -50q-15 -18 -47 -29v-58zM201 754v-754h-147v754h147z" />
    <glyph glyph-name="uni1EC9" unicode="&#x1ec9;" horiz-adv-x="253" 
d="M197 491v-491h-140v491h140zM157 550h-66v89q2 11 17 11q44 0 44 37q0 11 -7.5 19t-18.5 8q-12 0 -20.5 -8t-8.5 -19h-67q0 39 30 63q29 21 68 21t64 -21q31 -26 31 -63q0 -30 -19 -50q-15 -18 -47 -29v-58z" />
    <glyph glyph-name="uni1ECA" unicode="&#x1eca;" horiz-adv-x="254" 
d="M127 -44q25 0 42 -17.5t17 -41.5q0 -25 -17 -42t-42 -17t-42 17t-17 42q0 24 17 41.5t42 17.5zM201 754v-754h-147v754h147z" />
    <glyph glyph-name="uni1ECB" unicode="&#x1ecb;" horiz-adv-x="253" 
d="M127 -44q25 0 42 -17.5t17 -41.5q0 -25 -17 -42t-42 -17t-42 17t-17 42q0 24 17 41.5t42 17.5zM197 491v-491h-140v491h140zM127 780q34 0 58.5 -24.5t24.5 -58.5q0 -35 -24 -59t-59 -24t-59 24t-24 59q0 34 24.5 58.5t58.5 24.5z" />
    <glyph glyph-name="uni1ECC" unicode="&#x1ecc;" horiz-adv-x="782" 
d="M391 -44q25 0 42 -17.5t17 -41.5q0 -25 -17 -42t-42 -17t-42 17t-17 42q0 24 17 41.5t42 17.5zM764 378q0 -171 -102 -284.5t-271 -113.5t-271 113.5t-102 284.5t103.5 283.5t269.5 112.5t269.5 -112.5t103.5 -283.5zM612 384q0 97 -61 171t-160 74t-160 -74t-61 -171
q0 -46 12 -90t37 -83t69.5 -62.5t102.5 -23.5t102.5 23.5t69.5 62.5t37 83t12 90z" />
    <glyph glyph-name="uni1ECD" unicode="&#x1ecd;" horiz-adv-x="548" 
d="M274 -44q25 0 42 -17.5t17 -41.5q0 -25 -17 -42t-42 -17t-42 17t-17 42q0 24 17 41.5t42 17.5zM274 507q114 0 186 -73.5t72 -188.5t-71.5 -188t-186.5 -73t-186.5 73t-71.5 188t72 188.5t186 73.5zM274 383q-52 0 -84 -42t-32 -96q0 -53 32.5 -95t83.5 -42t83.5 42
t32.5 95q0 54 -32 96t-84 42z" />
    <glyph glyph-name="uni1ECE" unicode="&#x1ece;" horiz-adv-x="782" 
d="M440 805h-66v89q2 11 17 11q44 0 44 37q0 11 -7.5 19t-18.5 8q-12 0 -20.5 -8t-8.5 -19h-67q0 39 30 63q29 21 68 21t64 -21q31 -26 31 -63q0 -30 -19 -50q-15 -18 -47 -29v-58zM764 378q0 -171 -102 -284.5t-271 -113.5t-271 113.5t-102 284.5t103.5 283.5t269.5 112.5
t269.5 -112.5t103.5 -283.5zM612 384q0 97 -61 171t-160 74t-160 -74t-61 -171q0 -46 12 -90t37 -83t69.5 -62.5t102.5 -23.5t102.5 23.5t69.5 62.5t37 83t12 90z" />
    <glyph glyph-name="uni1ECF" unicode="&#x1ecf;" horiz-adv-x="548" 
d="M312 550h-66v89q2 11 17 11q44 0 44 37q0 11 -7.5 19t-18.5 8q-12 0 -20.5 -8t-8.5 -19h-67q0 39 30 63q29 21 68 21t64 -21q31 -26 31 -63q0 -30 -19 -50q-15 -18 -47 -29v-58zM274 507q114 0 186 -73.5t72 -188.5t-71.5 -188t-186.5 -73t-186.5 73t-71.5 188t72 188.5
t186 73.5zM274 383q-52 0 -84 -42t-32 -96q0 -53 32.5 -95t83.5 -42t83.5 42t32.5 95q0 54 -32 96t-84 42z" />
    <glyph glyph-name="uni1ED0" unicode="&#x1ed0;" horiz-adv-x="782" 
d="M557 1095l82 -50l-121 -120l-57 35zM764 378q0 -171 -102 -284.5t-271 -113.5t-271 113.5t-102 284.5t103.5 283.5t269.5 112.5t269.5 -112.5t103.5 -283.5zM612 384q0 97 -61 171t-160 74t-160 -74t-61 -171q0 -46 12 -90t37 -83t69.5 -62.5t102.5 -23.5t102.5 23.5
t69.5 62.5t37 83t12 90zM255 858l136 123l136 -123l-48 -53l-88 83l-88 -83z" />
    <glyph glyph-name="uni1ED1" unicode="&#x1ed1;" horiz-adv-x="548" 
d="M440 840l82 -50l-121 -120l-57 35zM274 507q114 0 186 -73.5t72 -188.5t-71.5 -188t-186.5 -73t-186.5 73t-71.5 188t72 188.5t186 73.5zM274 383q-52 0 -84 -42t-32 -96q0 -53 32.5 -95t83.5 -42t83.5 42t32.5 95q0 54 -32 96t-84 42zM138 603l136 123l136 -123l-48 -53
l-88 83l-88 -83z" />
    <glyph glyph-name="uni1ED2" unicode="&#x1ed2;" horiz-adv-x="782" 
d="M400 1045l82 50l96 -135l-57 -35zM764 378q0 -171 -102 -284.5t-271 -113.5t-271 113.5t-102 284.5t103.5 283.5t269.5 112.5t269.5 -112.5t103.5 -283.5zM612 384q0 97 -61 171t-160 74t-160 -74t-61 -171q0 -46 12 -90t37 -83t69.5 -62.5t102.5 -23.5t102.5 23.5
t69.5 62.5t37 83t12 90zM255 858l136 123l136 -123l-48 -53l-88 83l-88 -83z" />
    <glyph glyph-name="uni1ED3" unicode="&#x1ed3;" horiz-adv-x="548" 
d="M283 790l82 50l96 -135l-57 -35zM274 507q114 0 186 -73.5t72 -188.5t-71.5 -188t-186.5 -73t-186.5 73t-71.5 188t72 188.5t186 73.5zM274 383q-52 0 -84 -42t-32 -96q0 -53 32.5 -95t83.5 -42t83.5 42t32.5 95q0 54 -32 96t-84 42zM138 603l136 123l136 -123l-48 -53
l-88 83l-88 -83z" />
    <glyph glyph-name="uni1ED4" unicode="&#x1ed4;" horiz-adv-x="782" 
d="M579 925h-66v89q2 11 17 11q44 0 44 37q0 11 -7.5 19t-18.5 8q-12 0 -20.5 -8t-8.5 -19h-67q0 39 30 63q29 21 68 21t64 -21q31 -26 31 -63q0 -30 -19 -50q-15 -18 -47 -29v-58zM764 378q0 -171 -102 -284.5t-271 -113.5t-271 113.5t-102 284.5t103.5 283.5t269.5 112.5
t269.5 -112.5t103.5 -283.5zM612 384q0 97 -61 171t-160 74t-160 -74t-61 -171q0 -46 12 -90t37 -83t69.5 -62.5t102.5 -23.5t102.5 23.5t69.5 62.5t37 83t12 90zM255 858l136 123l136 -123l-48 -53l-88 83l-88 -83z" />
    <glyph glyph-name="uni1ED5" unicode="&#x1ed5;" horiz-adv-x="548" 
d="M462 670h-66v89q2 11 17 11q44 0 44 37q0 11 -7.5 19t-18.5 8q-12 0 -20.5 -8t-8.5 -19h-67q0 39 30 63q29 21 68 21t64 -21q31 -26 31 -63q0 -30 -19 -50q-15 -18 -47 -29v-58zM274 507q114 0 186 -73.5t72 -188.5t-71.5 -188t-186.5 -73t-186.5 73t-71.5 188t72 188.5
t186 73.5zM274 383q-52 0 -84 -42t-32 -96q0 -53 32.5 -95t83.5 -42t83.5 42t32.5 95q0 54 -32 96t-84 42zM138 603l136 123l136 -123l-48 -53l-88 83l-88 -83z" />
    <glyph glyph-name="uni1ED6" unicode="&#x1ed6;" horiz-adv-x="782" 
d="M310 990h-60q4 41 24.5 76t54.5 35q17 0 55 -17q43 -18 47 -18q9 0 16 5.5t9.5 11t7.5 17.5h61q-7 -46 -29 -79.5t-59 -33.5q-15 0 -49 18q-32 17 -48 17q-24 0 -30 -32zM764 378q0 -171 -102 -284.5t-271 -113.5t-271 113.5t-102 284.5t103.5 283.5t269.5 112.5
t269.5 -112.5t103.5 -283.5zM612 384q0 97 -61 171t-160 74t-160 -74t-61 -171q0 -46 12 -90t37 -83t69.5 -62.5t102.5 -23.5t102.5 23.5t69.5 62.5t37 83t12 90zM255 858l136 123l136 -123l-48 -53l-88 83l-88 -83z" />
    <glyph glyph-name="uni1ED7" unicode="&#x1ed7;" horiz-adv-x="548" 
d="M193 735h-60q4 41 24.5 76t54.5 35q17 0 55 -17q43 -18 47 -18q9 0 16 5.5t9.5 11t7.5 17.5h61q-7 -46 -29 -79.5t-59 -33.5q-15 0 -49 18q-32 17 -48 17q-24 0 -30 -32zM274 507q114 0 186 -73.5t72 -188.5t-71.5 -188t-186.5 -73t-186.5 73t-71.5 188t72 188.5
t186 73.5zM274 383q-52 0 -84 -42t-32 -96q0 -53 32.5 -95t83.5 -42t83.5 42t32.5 95q0 54 -32 96t-84 42zM138 603l136 123l136 -123l-48 -53l-88 83l-88 -83z" />
    <glyph glyph-name="uni1ED8" unicode="&#x1ed8;" horiz-adv-x="782" 
d="M764 378q0 -171 -102 -284.5t-271 -113.5t-271 113.5t-102 284.5t103.5 283.5t269.5 112.5t269.5 -112.5t103.5 -283.5zM612 384q0 97 -61 171t-160 74t-160 -74t-61 -171q0 -46 12 -90t37 -83t69.5 -62.5t102.5 -23.5t102.5 23.5t69.5 62.5t37 83t12 90zM255 858
l136 123l136 -123l-48 -53l-88 83l-88 -83zM391 -44q25 0 42 -17.5t17 -41.5q0 -25 -17 -42t-42 -17t-42 17t-17 42q0 24 17 41.5t42 17.5z" />
    <glyph glyph-name="uni1ED9" unicode="&#x1ed9;" horiz-adv-x="548" 
d="M274 507q114 0 186 -73.5t72 -188.5t-71.5 -188t-186.5 -73t-186.5 73t-71.5 188t72 188.5t186 73.5zM274 383q-52 0 -84 -42t-32 -96q0 -53 32.5 -95t83.5 -42t83.5 42t32.5 95q0 54 -32 96t-84 42zM138 603l136 123l136 -123l-48 -53l-88 83l-88 -83zM274 -44
q25 0 42 -17.5t17 -41.5q0 -25 -17 -42t-42 -17t-42 17t-17 42q0 24 17 41.5t42 17.5z" />
    <glyph glyph-name="uni1EDA" unicode="&#x1eda;" horiz-adv-x="782" 
d="M458 975l82 -50l-121 -120l-57 35zM764 378q0 -171 -102 -284.5t-271 -113.5t-271 113.5t-102 284.5t103.5 283.5t269.5 112.5q103 0 186 -47l39 113l102 -11l-75 -150q121 -113 121 -301zM612 384q0 97 -61 171t-160 74t-160 -74t-61 -171q0 -46 12 -90t37 -83
t69.5 -62.5t102.5 -23.5t102.5 23.5t69.5 62.5t37 83t12 90z" />
    <glyph glyph-name="uni1EDB" unicode="&#x1edb;" horiz-adv-x="548" 
d="M339 720l82 -50l-121 -120l-57 35zM274 507q70 0 127 -30l34 97l102 -11l-69 -138q64 -72 64 -180q0 -115 -71.5 -188t-186.5 -73t-186.5 73t-71.5 188t72 188.5t186 73.5zM274 383q-52 0 -84 -42t-32 -96q0 -53 32.5 -95t83.5 -42t83.5 42t32.5 95q0 54 -32 96t-84 42z
" />
    <glyph glyph-name="uni1EDC" unicode="&#x1edc;" horiz-adv-x="782" 
d="M240 925l82 50l96 -135l-57 -35zM764 378q0 -171 -102 -284.5t-271 -113.5t-271 113.5t-102 284.5t103.5 283.5t269.5 112.5q103 0 186 -47l39 113l102 -11l-75 -150q121 -113 121 -301zM612 384q0 97 -61 171t-160 74t-160 -74t-61 -171q0 -46 12 -90t37 -83t69.5 -62.5
t102.5 -23.5t102.5 23.5t69.5 62.5t37 83t12 90z" />
    <glyph glyph-name="uni1EDD" unicode="&#x1edd;" horiz-adv-x="548" 
d="M124 670l82 50l96 -135l-57 -35zM274 507q70 0 127 -30l34 97l102 -11l-69 -138q64 -72 64 -180q0 -115 -71.5 -188t-186.5 -73t-186.5 73t-71.5 188t72 188.5t186 73.5zM274 383q-52 0 -84 -42t-32 -96q0 -53 32.5 -95t83.5 -42t83.5 42t32.5 95q0 54 -32 96t-84 42z
" />
    <glyph glyph-name="uni1EDE" unicode="&#x1ede;" horiz-adv-x="782" 
d="M440 805h-66v89q2 11 17 11q44 0 44 37q0 11 -7.5 19t-18.5 8q-12 0 -20.5 -8t-8.5 -19h-67q0 39 30 63q29 21 68 21t64 -21q31 -26 31 -63q0 -30 -19 -50q-15 -18 -47 -29v-58zM764 378q0 -171 -102 -284.5t-271 -113.5t-271 113.5t-102 284.5t103.5 283.5t269.5 112.5
q103 0 186 -47l39 113l102 -11l-75 -150q121 -113 121 -301zM612 384q0 97 -61 171t-160 74t-160 -74t-61 -171q0 -46 12 -90t37 -83t69.5 -62.5t102.5 -23.5t102.5 23.5t69.5 62.5t37 83t12 90z" />
    <glyph glyph-name="uni1EDF" unicode="&#x1edf;" horiz-adv-x="548" 
d="M312 550h-66v89q2 11 17 11q44 0 44 37q0 11 -7.5 19t-18.5 8q-12 0 -20.5 -8t-8.5 -19h-67q0 39 30 63q29 21 68 21t64 -21q31 -26 31 -63q0 -30 -19 -50q-15 -18 -47 -29v-58zM274 507q70 0 127 -30l34 97l102 -11l-69 -138q64 -72 64 -180q0 -115 -71.5 -188
t-186.5 -73t-186.5 73t-71.5 188t72 188.5t186 73.5zM274 383q-52 0 -84 -42t-32 -96q0 -53 32.5 -95t83.5 -42t83.5 42t32.5 95q0 54 -32 96t-84 42z" />
    <glyph glyph-name="uni1EE0" unicode="&#x1ee0;" horiz-adv-x="782" 
d="M297 805h-60q4 41 24.5 76t54.5 35q17 0 55 -17q43 -18 47 -18q9 0 16 5.5t9.5 11t7.5 17.5h61q-7 -46 -29 -79.5t-59 -33.5q-15 0 -49 18q-32 17 -48 17q-24 0 -30 -32zM764 378q0 -171 -102 -284.5t-271 -113.5t-271 113.5t-102 284.5t103.5 283.5t269.5 112.5
q103 0 186 -47l39 113l102 -11l-75 -150q121 -113 121 -301zM612 384q0 97 -61 171t-160 74t-160 -74t-61 -171q0 -46 12 -90t37 -83t69.5 -62.5t102.5 -23.5t102.5 23.5t69.5 62.5t37 83t12 90z" />
    <glyph glyph-name="uni1EE1" unicode="&#x1ee1;" horiz-adv-x="548" 
d="M198 550h-60q4 41 24.5 76t54.5 35q17 0 55 -17q43 -18 47 -18q9 0 16 5.5t9.5 11t7.5 17.5h61q-7 -46 -29 -79.5t-59 -33.5q-15 0 -49 18q-32 17 -48 17q-24 0 -30 -32zM274 507q70 0 127 -30l34 97l102 -11l-69 -138q64 -72 64 -180q0 -115 -71.5 -188t-186.5 -73
t-186.5 73t-71.5 188t72 188.5t186 73.5zM274 383q-52 0 -84 -42t-32 -96q0 -53 32.5 -95t83.5 -42t83.5 42t32.5 95q0 54 -32 96t-84 42z" />
    <glyph glyph-name="uni1EE2" unicode="&#x1ee2;" horiz-adv-x="782" 
d="M391 -44q25 0 42 -17.5t17 -41.5q0 -25 -17 -42t-42 -17t-42 17t-17 42q0 24 17 41.5t42 17.5zM764 378q0 -171 -102 -284.5t-271 -113.5t-271 113.5t-102 284.5t103.5 283.5t269.5 112.5q103 0 186 -47l39 113l102 -11l-75 -150q121 -113 121 -301zM612 384
q0 97 -61 171t-160 74t-160 -74t-61 -171q0 -46 12 -90t37 -83t69.5 -62.5t102.5 -23.5t102.5 23.5t69.5 62.5t37 83t12 90z" />
    <glyph glyph-name="uni1EE3" unicode="&#x1ee3;" horiz-adv-x="548" 
d="M274 -44q25 0 42 -17.5t17 -41.5q0 -25 -17 -42t-42 -17t-42 17t-17 42q0 24 17 41.5t42 17.5zM274 507q70 0 127 -30l34 97l102 -11l-69 -138q64 -72 64 -180q0 -115 -71.5 -188t-186.5 -73t-186.5 73t-71.5 188t72 188.5t186 73.5zM274 383q-52 0 -84 -42t-32 -96
q0 -53 32.5 -95t83.5 -42t83.5 42t32.5 95q0 54 -32 96t-84 42z" />
    <glyph glyph-name="uni1EE4" unicode="&#x1ee4;" horiz-adv-x="660" 
d="M330 -44q25 0 42 -17.5t17 -41.5q0 -25 -17 -42t-42 -17t-42 17t-17 42q0 24 17 41.5t42 17.5zM50 303v451h147v-422q0 -34 1.5 -59.5t9.5 -59t21 -54.5t39 -36t62 -15t62 15t39 36t21 54.5t9.5 59t1.5 59.5v422h147v-451q0 -148 -68 -235.5t-212 -87.5t-212 87.5
t-68 235.5z" />
    <glyph glyph-name="uni1EE5" unicode="&#x1ee5;" horiz-adv-x="535" 
d="M266 -44q25 0 42 -17.5t17 -41.5q0 -25 -17 -42t-42 -17t-42 17t-17 42q0 24 17 41.5t42 17.5zM47 491h140v-266q0 -123 80 -123t80 123v266h140v-289q0 -218 -220 -218t-220 218v289z" />
    <glyph glyph-name="uni1EE6" unicode="&#x1ee6;" horiz-adv-x="660" 
d="M380 805h-66v89q2 11 17 11q44 0 44 37q0 11 -7.5 19t-18.5 8q-12 0 -20.5 -8t-8.5 -19h-67q0 39 30 63q29 21 68 21t64 -21q31 -26 31 -63q0 -30 -19 -50q-15 -18 -47 -29v-58zM50 303v451h147v-422q0 -34 1.5 -59.5t9.5 -59t21 -54.5t39 -36t62 -15t62 15t39 36
t21 54.5t9.5 59t1.5 59.5v422h147v-451q0 -148 -68 -235.5t-212 -87.5t-212 87.5t-68 235.5z" />
    <glyph glyph-name="uni1EE7" unicode="&#x1ee7;" horiz-adv-x="535" 
d="M312 550h-66v89q2 11 17 11q44 0 44 37q0 11 -7.5 19t-18.5 8q-12 0 -20.5 -8t-8.5 -19h-67q0 39 30 63q29 21 68 21t64 -21q31 -26 31 -63q0 -30 -19 -50q-15 -18 -47 -29v-58zM47 491h140v-266q0 -123 80 -123t80 123v266h140v-289q0 -218 -220 -218t-220 218v289z" />
    <glyph glyph-name="uni1EE8" unicode="&#x1ee8;" horiz-adv-x="660" 
d="M397 975l82 -50l-121 -120l-57 35zM50 303v451h147v-422q0 -34 1.5 -59.5t9.5 -59t21 -54.5t39 -36t62 -15t62 15t39 36t21 54.5t9.5 59t1.5 59.5v422h100l33 96l102 -11l-88 -177v-359q0 -148 -68 -235.5t-212 -87.5t-212 87.5t-68 235.5z" />
    <glyph glyph-name="uni1EE9" unicode="&#x1ee9;" horiz-adv-x="535" 
d="M335 720l82 -50l-121 -120l-57 35zM47 491h140v-266q0 -123 80 -123t80 123v266h96l32 93l102 -11l-90 -181v-190q0 -218 -220 -218t-220 218v289z" />
    <glyph glyph-name="uni1EEA" unicode="&#x1eea;" horiz-adv-x="660" 
d="M191 925l82 50l96 -135l-57 -35zM50 303v451h147v-422q0 -34 1.5 -59.5t9.5 -59t21 -54.5t39 -36t62 -15t62 15t39 36t21 54.5t9.5 59t1.5 59.5v422h100l33 96l102 -11l-88 -177v-359q0 -148 -68 -235.5t-212 -87.5t-212 87.5t-68 235.5z" />
    <glyph glyph-name="uni1EEB" unicode="&#x1eeb;" horiz-adv-x="535" 
d="M110 670l82 50l96 -135l-57 -35zM47 491h140v-266q0 -123 80 -123t80 123v266h96l32 93l102 -11l-90 -181v-190q0 -218 -220 -218t-220 218v289z" />
    <glyph glyph-name="uni1EEC" unicode="&#x1eec;" horiz-adv-x="660" 
d="M380 805h-66v89q2 11 17 11q44 0 44 37q0 11 -7.5 19t-18.5 8q-12 0 -20.5 -8t-8.5 -19h-67q0 39 30 63q29 21 68 21t64 -21q31 -26 31 -63q0 -30 -19 -50q-15 -18 -47 -29v-58zM50 303v451h147v-422q0 -34 1.5 -59.5t9.5 -59t21 -54.5t39 -36t62 -15t62 15t39 36
t21 54.5t9.5 59t1.5 59.5v422h100l33 96l102 -11l-88 -177v-359q0 -148 -68 -235.5t-212 -87.5t-212 87.5t-68 235.5z" />
    <glyph glyph-name="uni1EED" unicode="&#x1eed;" horiz-adv-x="535" 
d="M312 550h-66v89q2 11 17 11q44 0 44 37q0 11 -7.5 19t-18.5 8q-12 0 -20.5 -8t-8.5 -19h-67q0 39 30 63q29 21 68 21t64 -21q31 -26 31 -63q0 -30 -19 -50q-15 -18 -47 -29v-58zM47 491h140v-266q0 -123 80 -123t80 123v266h96l32 93l102 -11l-90 -181v-190
q0 -218 -220 -218t-220 218v289z" />
    <glyph glyph-name="uni1EEE" unicode="&#x1eee;" horiz-adv-x="660" 
d="M260 805h-60q4 41 24.5 76t54.5 35q17 0 55 -17q43 -18 47 -18q9 0 16 5.5t9.5 11t7.5 17.5h61q-7 -46 -29 -79.5t-59 -33.5q-15 0 -49 18q-32 17 -48 17q-24 0 -30 -32zM50 303v451h147v-422q0 -34 1.5 -59.5t9.5 -59t21 -54.5t39 -36t62 -15t62 15t39 36t21 54.5
t9.5 59t1.5 59.5v422h100l33 96l102 -11l-88 -177v-359q0 -148 -68 -235.5t-212 -87.5t-212 87.5t-68 235.5z" />
    <glyph glyph-name="uni1EEF" unicode="&#x1eef;" horiz-adv-x="535" 
d="M198 550h-60q4 41 24.5 76t54.5 35q17 0 55 -17q43 -18 47 -18q9 0 16 5.5t9.5 11t7.5 17.5h61q-7 -46 -29 -79.5t-59 -33.5q-15 0 -49 18q-32 17 -48 17q-24 0 -30 -32zM47 491h140v-266q0 -123 80 -123t80 123v266h96l32 93l102 -11l-90 -181v-190q0 -218 -220 -218
t-220 218v289z" />
    <glyph glyph-name="uni1EF0" unicode="&#x1ef0;" horiz-adv-x="660" 
d="M330 -44q25 0 42 -17.5t17 -41.5q0 -25 -17 -42t-42 -17t-42 17t-17 42q0 24 17 41.5t42 17.5zM50 303v451h147v-422q0 -34 1.5 -59.5t9.5 -59t21 -54.5t39 -36t62 -15t62 15t39 36t21 54.5t9.5 59t1.5 59.5v422h100l33 96l102 -11l-88 -177v-359q0 -148 -68 -235.5
t-212 -87.5t-212 87.5t-68 235.5z" />
    <glyph glyph-name="uni1EF1" unicode="&#x1ef1;" horiz-adv-x="535" 
d="M266 -44q25 0 42 -17.5t17 -41.5q0 -25 -17 -42t-42 -17t-42 17t-17 42q0 24 17 41.5t42 17.5zM47 491h140v-266q0 -123 80 -123t80 123v266h96l32 93l102 -11l-90 -181v-190q0 -218 -220 -218t-220 218v289z" />
    <glyph glyph-name="Ygrave" unicode="&#x1ef2;" horiz-adv-x="587" 
d="M161 925l82 50l96 -135l-57 -35zM218 346l-234 408h171l132 -262l144 262h172l-238 -408v-346h-147v346z" />
    <glyph glyph-name="ygrave" unicode="&#x1ef3;" horiz-adv-x="520" 
d="M130 670l82 50l96 -135l-57 -35zM191 75l-209 416h159l117 -279l126 279h156l-357 -753h-154z" />
    <glyph glyph-name="uni1EF4" unicode="&#x1ef4;" horiz-adv-x="587" 
d="M293 -44q25 0 42 -17.5t17 -41.5q0 -25 -17 -42t-42 -17t-42 17t-17 42q0 24 17 41.5t42 17.5zM218 346l-234 408h171l132 -262l144 262h172l-238 -408v-346h-147v346z" />
    <glyph glyph-name="uni1EF5" unicode="&#x1ef5;" horiz-adv-x="520" 
d="M380 -44q25 0 42 -17.5t17 -41.5q0 -25 -17 -42t-42 -17t-42 17t-17 42q0 24 17 41.5t42 17.5zM191 75l-209 416h159l117 -279l126 279h156l-357 -753h-154z" />
    <glyph glyph-name="uni1EF6" unicode="&#x1ef6;" horiz-adv-x="587" 
d="M340 805h-66v89q2 11 17 11q44 0 44 37q0 11 -7.5 19t-18.5 8q-12 0 -20.5 -8t-8.5 -19h-67q0 39 30 63q29 21 68 21t64 -21q31 -26 31 -63q0 -30 -19 -50q-15 -18 -47 -29v-58zM218 346l-234 408h171l132 -262l144 262h172l-238 -408v-346h-147v346z" />
    <glyph glyph-name="uni1EF7" unicode="&#x1ef7;" horiz-adv-x="520" 
d="M302 550h-66v89q2 11 17 11q44 0 44 37q0 11 -7.5 19t-18.5 8q-12 0 -20.5 -8t-8.5 -19h-67q0 39 30 63q29 21 68 21t64 -21q31 -26 31 -63q0 -30 -19 -50q-15 -18 -47 -29v-58zM191 75l-209 416h159l117 -279l126 279h156l-357 -753h-154z" />
    <glyph glyph-name="uni1EF8" unicode="&#x1ef8;" horiz-adv-x="587" 
d="M220 805h-60q4 41 24.5 76t54.5 35q17 0 55 -17q43 -18 47 -18q9 0 16 5.5t9.5 11t7.5 17.5h61q-7 -46 -29 -79.5t-59 -33.5q-15 0 -49 18q-32 17 -48 17q-24 0 -30 -32zM218 346l-234 408h171l132 -262l144 262h172l-238 -408v-346h-147v346z" />
    <glyph glyph-name="uni1EF9" unicode="&#x1ef9;" horiz-adv-x="520" 
d="M202 550h-60q4 41 24.5 76t54.5 35q17 0 55 -17q43 -18 47 -18q9 0 16 5.5t9.5 11t7.5 17.5h61q-7 -46 -29 -79.5t-59 -33.5q-15 0 -49 18q-32 17 -48 17q-24 0 -30 -32zM191 75l-209 416h159l117 -279l126 279h156l-357 -753h-154z" />
    <glyph glyph-name="uni2010" unicode="&#x2010;" horiz-adv-x="330" 
d="M43 378h244v-115h-244v115z" />
    <glyph glyph-name="endash" unicode="&#x2013;" horiz-adv-x="500" 
d="M0 378h500v-115h-500v115z" />
    <glyph glyph-name="emdash" unicode="&#x2014;" horiz-adv-x="1000" 
d="M130 378h740v-115h-740v115z" />
    <glyph glyph-name="quoteleft" unicode="&#x2018;" horiz-adv-x="296" 
d="M159 459l-129 14l144 301l93 -11z" />
    <glyph glyph-name="quoteright" unicode="&#x2019;" horiz-adv-x="296" 
d="M139 774l128 -15l-144 -300l-93 11z" />
    <glyph glyph-name="quotesinglbase" unicode="&#x201a;" horiz-adv-x="296" 
d="M139 156l128 -14l-144 -301l-93 11z" />
    <glyph glyph-name="quotedblleft" unicode="&#x201c;" horiz-adv-x="488" 
d="M350 459l-129 14l144 301l93 -11zM159 459l-129 14l144 301l93 -11z" />
    <glyph glyph-name="quotedblright" unicode="&#x201d;" horiz-adv-x="488" 
d="M139 774l128 -15l-144 -300l-93 11zM330 774l128 -15l-144 -300l-93 11z" />
    <glyph glyph-name="quotedblbase" unicode="&#x201e;" horiz-adv-x="488" 
d="M139 156l128 -14l-144 -301l-93 11zM330 156l128 -14l-144 -301l-93 11z" />
    <glyph glyph-name="dagger" unicode="&#x2020;" horiz-adv-x="577" 
d="M223 848h131v-240h162v-116h-162v-589h-131v589h-162v116h162v240z" />
    <glyph glyph-name="daggerdbl" unicode="&#x2021;" horiz-adv-x="577" 
d="M223 848h131v-211h162v-116h-162v-133h162v-116h-162v-368h-131v368h-162v116h162v133h-162v116h162v211z" />
    <glyph glyph-name="bullet" unicode="&#x2022;" horiz-adv-x="577" 
d="M288 189q-78 0 -133 55t-55 133q-1 79 54 134t134 55t134 -55t55 -134q0 -78 -55.5 -133t-133.5 -55z" />
    <glyph glyph-name="ellipsis" unicode="&#x2026;" horiz-adv-x="1000" 
d="M167 161q37 0 63 -25.5t26 -62.5t-26 -63.5t-63 -26.5t-63 26.5t-26 63.5t26 62.5t63 25.5zM500 158q37 0 63 -25.5t26 -62.5t-26 -63.5t-63 -26.5t-63 26.5t-26 63.5t26 62.5t63 25.5zM833 158q37 0 63 -25.5t26 -62.5t-26 -63.5t-63 -26.5t-63 26.5t-26 63.5t26 62.5
t63 25.5z" />
    <glyph glyph-name="perthousand" unicode="&#x2030;" horiz-adv-x="1200" 
d="M202 774q77 0 128 -50.5t51 -128.5q0 -77 -51 -127.5t-128 -50.5t-128 50.5t-51 127.5q0 78 51 128.5t128 50.5zM202 693q-35 0 -57.5 -30.5t-22.5 -67.5t22 -67t58 -30t58 30t22 67t-22.5 67.5t-57.5 30.5zM604 337q77 0 128 -50.5t51 -128.5q0 -77 -51 -127.5
t-128 -50.5t-128 50.5t-51 127.5q0 78 51 128.5t128 50.5zM604 256q-35 0 -57.5 -30.5t-22.5 -67.5t22 -67t58 -30t58 30t22 67t-22.5 67.5t-57.5 30.5zM999 337q77 0 128 -50.5t51 -128.5q0 -77 -51 -127.5t-128 -50.5t-128 50.5t-51 127.5q0 78 51 128.5t128 50.5z
M999 256q-35 0 -57.5 -30.5t-22.5 -67.5t22 -67t58 -30t58 30t22 67t-22.5 67.5t-57.5 30.5zM570 780l68 -34l-404 -777l-69 35z" />
    <glyph glyph-name="guilsinglleft" unicode="&#x2039;" horiz-adv-x="314" 
d="M139 320l125 -182l-87 -58l-159 240l159 243l86 -56z" />
    <glyph glyph-name="guilsinglright" unicode="&#x203a;" horiz-adv-x="314" 
d="M50 138l125 182l-124 187l86 56l159 -243l-159 -240z" />
    <glyph glyph-name="fraction" unicode="&#x2044;" horiz-adv-x="179" 
d="M257 780l68 -34l-404 -777l-69 35z" />
    <glyph glyph-name="Euro" unicode="&#x20ac;" 
d="M533 737v-130q-48 42 -139 42q-130 0 -151 -136h257l-34 -102h-235q-1 -9 -1 -30q0 -26 1 -35h212l-34 -102h-166q21 -141 152 -141q91 0 138 43v-133q-49 -32 -159 -32q-229 0 -268 263h-86l33 102h42q-2 18 -2 35q0 12 2 30h-75l33 102h51q41 260 270 260
q104 0 159 -36z" />
    <glyph glyph-name="afii61289" unicode="&#x2113;" horiz-adv-x="532" 
d="M461 187l52 -55q-73 -148 -213 -148q-90 0 -135.5 51t-52.5 132q0 9 -1 13l-27.5 -22.5l-27.5 -22.5l-32 71q68 58 86 76v280q0 136 52.5 205t133.5 69q71 0 107 -53.5t36 -138.5q0 -173 -203 -379v-50q1 -62 26.5 -94t67.5 -32q72 0 131 98zM236 559v-172
q124 150 124 262q0 91 -58 91q-18 0 -32 -15t-24 -57.5t-10 -108.5z" />
    <glyph glyph-name="trademark" unicode="&#x2122;" horiz-adv-x="1000" 
d="M382 754v-75h-127v-346h-86v346h-127v75h340zM958 754v-421h-86v335h-2l-122 -335h-83l-118 335h-2v-335h-86v421h149l98 -275h2l102 275h148z" />
    <glyph glyph-name="Omega" unicode="&#x2126;" horiz-adv-x="729" 
d="M180 108v3q-54 55 -90 135.5t-36 177.5q0 148 88 250.5t226 102.5q72 0 131.5 -31t96.5 -81t57 -110.5t20 -122.5q0 -100 -36.5 -184t-90.5 -137v-3h142v-108h-270v79q53 37 88.5 119t35.5 204q-1 109 -47 186t-129 77q-82 0 -131.5 -75t-49.5 -193q0 -113 36.5 -198.5
t87.5 -119.5v-79h-270v108h141z" />
    <glyph glyph-name="estimated" unicode="&#x212e;" horiz-adv-x="957" 
d="M919 366h-714q-6 0 -6 -5v-216q0 -13 10 -25q114 -117 270 -117q84 0 157.5 35t126.5 97h63q-60 -71 -151.5 -112.5t-196.5 -41.5q-120 0 -221.5 53t-160.5 144t-59 198q0 165 129 281t312 116t312 -116t129 -281v-10zM757 394v217q0 16 -10 26q-116 113 -268 113
q-155 0 -269 -116q-11 -11 -11 -27v-213q0 -7 6 -7h547q5 0 5 7z" />
    <glyph glyph-name="partialdiff" unicode="&#x2202;" horiz-adv-x="598" 
d="M109 696l-36 100q79 62 188 62q121 0 203.5 -108t82.5 -308q0 -210 -77 -333.5t-214 -123.5q-69 0 -119.5 40t-73 97t-22.5 121q0 130 65.5 209t160.5 79q55 0 94.5 -27.5t56.5 -56.5h1q1 9 1 37q0 108 -49 186t-126 78q-75 0 -136 -52zM268 96h1q55 0 92.5 72.5
t45.5 165.5q-9 32 -40.5 61t-74.5 29q-53 0 -88 -55.5t-35 -130.5q0 -61 27.5 -101.5t71.5 -40.5z" />
    <glyph glyph-name="uni2206" unicode="&#x2206;" horiz-adv-x="681" 
d="M29 0v78l238 704h154l231 -701v-81h-623zM161 107h353l-114 325q-7 27 -30 100t-29 99h-3q-4 -20 -25.5 -86t-29.5 -97z" />
    <glyph glyph-name="product" unicode="&#x220f;" horiz-adv-x="752" 
d="M724 645h-105v-751h-129v751h-229v-751h-129v751h-105v120h697v-120z" />
    <glyph glyph-name="summation" unicode="&#x2211;" horiz-adv-x="580" 
d="M560 -106h-535v87l254 350l-245 341v93h509v-111h-336v-4l217 -296l-242 -333v-3h378v-124z" />
    <glyph glyph-name="minus" unicode="&#x2212;" 
d="M33 197v118h512v-118h-512z" />
    <glyph glyph-name="uni2215" unicode="&#x2215;" horiz-adv-x="179" 
d="M257 780l68 -34l-404 -777l-69 35z" />
    <glyph glyph-name="uni2219" unicode="&#x2219;" horiz-adv-x="289" 
d="M145 345q37 0 63 -25.5t26 -62.5t-26 -63.5t-63 -26.5t-63 26.5t-26 63.5t26 62.5t63 25.5z" />
    <glyph glyph-name="radical" unicode="&#x221a;" horiz-adv-x="620" 
d="M626 919l-233 -1072h-105l-155 482l-77 -31l-22 75l178 71l107 -346l21 -96l1 -2l4 27l6 40t7 37l178 815h90z" />
    <glyph glyph-name="infinity" unicode="&#x221e;" horiz-adv-x="828" 
d="M777 317v-1q0 -83 -50.5 -133.5t-120.5 -50.5q-49 0 -94 27t-96 94q-48 -59 -93.5 -90t-104.5 -31q-68 0 -117.5 50.5t-49.5 128.5q0 80 50 131t126 51q100 0 192 -119q54 62 83 82q51 37 111 37q71 -1 117.5 -49.5t46.5 -126.5zM228 204h1q28 0 57 18t45 34.5t45 50.5
q-51 67 -75 86q-35 29 -77 29q-45 0 -72 -31.5t-27 -80.5q0 -44 29.5 -75t73.5 -31zM605 422h-1q-16 0 -32 -6t-27 -12.5t-27 -21.5t-22.5 -22t-22 -25t-17.5 -21q51 -63 82.5 -86.5t70.5 -23.5q42 0 68 33t26 73q0 50 -27.5 81t-70.5 31z" />
    <glyph glyph-name="integral" unicode="&#x222b;" horiz-adv-x="419" 
d="M394 933l-14 -92q-20 10 -37 10q-34 0 -52 -28q-29 -38 -29 -185q0 -87 7.5 -258t7.5 -271q0 -147 -39 -220q-38 -77 -135 -77q-49 0 -79 17l16 95q28 -11 45 -11q31 0 46 22q29 42 29 172q0 100 -8 275.5t-8 267.5q0 95 14.5 152t48.5 94q45 49 122 49q39 0 65 -12z" />
    <glyph glyph-name="approxequal" unicode="&#x2248;" horiz-adv-x="577" 
d="M488 489l46 -42q-54 -111 -141 -111q-50 0 -117 43q-58 36 -91 36q-22 0 -41.5 -13t-29 -25.5t-26.5 -38.5l-47 41q23 49 63.5 79.5t87.5 30.5q12 0 24.5 -2t20.5 -4t20.5 -8t16 -8l16.5 -9l13 -8q4 -2 15 -9t14.5 -9l12 -7t13 -6.5l11.5 -4t12.5 -3t12.5 -0.5
q29 0 49.5 19t44.5 59zM488 291l46 -42q-24 -50 -60.5 -80t-81.5 -30q-47 0 -116 42q-58 37 -91 37q-22 0 -41.5 -13t-29 -26t-26.5 -39l-47 42q23 49 63.5 79.5t87.5 30.5q15 0 28 -2.5t26 -7.5t20.5 -8.5t20.5 -11t16 -9.5q6 -3 19 -11.5t19 -11.5t16 -7.5t18.5 -6.5
t18.5 -2q29 0 49.5 18.5t44.5 58.5z" />
    <glyph glyph-name="notequal" unicode="&#x2260;" horiz-adv-x="577" 
d="M423 555l-41 -95h144v-77h-172l-63 -145h235v-77h-263l-52 -120l-60 24l42 96h-142v77h171l62 145h-233v77h261l51 118z" />
    <glyph glyph-name="lessequal" unicode="&#x2264;" horiz-adv-x="577" 
d="M523 108l-466 240v83l465 240v-90l-391 -190v-2l392 -190v-91zM527 -10h-475v78h475v-78z" />
    <glyph glyph-name="greaterequal" unicode="&#x2265;" horiz-adv-x="577" 
d="M59 671l466 -240v-83l-466 -240v91l390 190v2l-390 190v90zM526 -10h-473v78h473v-78z" />
    <glyph glyph-name="lozenge" unicode="&#x25ca;" horiz-adv-x="620" 
d="M566 382l-207 -434h-105l-200 434l206 435h105zM451 379l-119 261q-16 48 -19 68h-4q-9 -38 -20 -68l-120 -255l120 -265q12 -38 17 -65h5q11 47 19 63z" />
    <glyph glyph-name="fi" unicode="&#xfb01;" horiz-adv-x="544" 
d="M195 373v-373h-140v373h-47v118h47v144q0 99 45 162t140 63q36 0 67 -16v-125q-34 17 -57 17q-10 0 -18 -2.5t-14 -8.5t-10 -11.5t-6.5 -15t-4 -16t-2 -18.5t-0.5 -17.5v-17v-14.5v-124h112v-118h-112zM487 491v-491h-140v491h140zM417 780q34 0 58.5 -24.5t24.5 -58.5
q0 -35 -24 -59t-59 -24t-59 24t-24 59q0 34 24.5 58.5t58.5 24.5z" />
    <glyph glyph-name="fl" unicode="&#xfb02;" horiz-adv-x="543" 
d="M493 848v-848h-140v848h140zM195 373v-373h-140v373h-47v118h47v144q0 99 45 162t140 63q36 0 67 -16v-125q-34 17 -57 17q-10 0 -18 -2.5t-14 -8.5t-10 -11.5t-6.5 -15t-4 -16t-2 -18.5t-0.5 -17.5v-17v-14.5v-124h112v-118h-112z" />
    <glyph glyph-name="a.superior" horiz-adv-x="339" 
d="M332 764v-294h-89v27h-2q-29 -37 -86 -37q-67 0 -107 47.5t-40 110.5q0 62 40 109t106 47q55 0 89 -37v27h89zM176 534q33 0 54.5 26t21.5 57q0 32 -21 57.5t-55 25.5t-55 -25.5t-21 -57.5q0 -31 21.5 -57t54.5 -26z" />
    <glyph glyph-name="o.superior" horiz-adv-x="339" 
d="M170 774q74 0 121 -44t47 -113t-46.5 -113t-121.5 -44t-121.5 44t-46.5 113t47 113t121 44zM170 700q-34 0 -54.5 -25t-20.5 -57t21 -58t54 -26t54 26t21 58t-20.5 57t-54.5 25z" />
    <glyph glyph-name="one.superior" horiz-adv-x="346" 
d="M157 678h-64v76h160v-452h-96v376z" />
    <glyph glyph-name="two.superior" horiz-adv-x="346" 
d="M178 379h160v-77h-330l125 145q1 1 16 18.5l20.5 24t19 24t20 28l15 25t12 26.5t3.5 23q0 33 -16.5 53.5t-46.5 20.5t-46 -24.5t-14 -53.5h-101q5 68 46.5 111t114.5 43q67 0 113 -42t46 -103q0 -46 -22 -83.5t-63 -81.5z" />
    <glyph glyph-name="three.superior" horiz-adv-x="346" 
d="M120 644h-91q6 60 45.5 95t104.5 35q63 0 102 -34.5t39 -92.5q0 -65 -47 -95q31 -13 47 -44t16 -66q0 -66 -45.5 -105t-117.5 -39q-67 0 -112.5 41t-49.5 102h96q2 -28 20.5 -47t49.5 -19q30 0 48 22t18 50q0 29 -19 51.5t-50 20.5l-18 -1v63h11q30 0 46 17t16 46
q0 24 -15 40.5t-41 16.5q-24 0 -38 -17t-15 -40z" />
    </font>
</defs>
</svg>
